<svg fill="none" height="13" viewBox="0 0 13 13" width="13" xmlns="http://www.w3.org/2000/svg"><path d="m11.6368.666748h-11.039979c-.2655 0-.48.2145-.48.480002v11.03995c0 .2655.2145.48.48.48h11.039979c.2655 0 .48-.2145.48-.48v-11.03995c0-.265502-.2145-.480002-.48-.480002zm-1.386 3.502502h-.95848c-.7515 0-.897.357-.897.882v1.1565h1.79398l-.23398 1.8105h-1.56v4.64845h-1.8705v-4.64695h-1.5645v-1.812h1.5645v-1.335c0-1.5495.9465-2.394 2.3295-2.394.663 0 1.23148.0495 1.39798.072v1.6185z" fill="#fff"/></svg>