<svg fill="none" height="38" viewBox="0 0 207 38" width="207" xmlns="http://www.w3.org/2000/svg"><g fill="#fff"><path d="m47.7264 15.7669c.5004.0087.9999-.0431 1.4879-.1542.4179-.0946.8253-.2305 1.2162-.4059v-2.4715h-1.7027c-.0735.0069-.1476-.0018-.2175-.0255-.0698-.0238-.1339-.0621-.1879-.1125-.0449-.0419-.0804-.0929-.1042-.1495-.0238-.0567-.0352-.1178-.0337-.1792v-1.4001h4.5285v5.4625c-.3376.2373-.6943.4463-1.0662.625-.3891.1922-.7966.3445-1.2163.4545-.4442.1223-.8968.2118-1.3541.2678-.5181.0588-1.0393.0872-1.5608.0853-.9355.0103-1.8639-.1635-2.7325-.5114-.8124-.3246-1.5497-.8126-2.1661-1.4339-.6165-.6212-1.099-1.3625-1.4177-2.178-.3431-.8831-.5124-1.8243-.4987-2.7718-.0108-.95385.1583-1.90116.4987-2.79215.3134-.8181.7939-1.56174 1.4108-2.18337.6339-.62292 1.3905-1.10668 2.2217-1.42042.9375-.34775 1.9314-.51838 2.9311-.50323.9821-.02273 1.9593.14399 2.8784.49106.7593.29367 1.4576.72575 2.0595 1.27431l-.7297 1.13633c-.0558.10428-.1388.19144-.2402.2522-.1014.06075-.2173.09281-.3355.09276-.1635-.00385-.3225-.05456-.4581-.1461-.2027-.12175-.4054-.23944-.6162-.35713-.2247-.12246-.4593-.22564-.7014-.30843-.2796-.0922-.5655-.16408-.8554-.21509-.3621-.05696-.7282-.08411-1.0946-.08117-.6219-.01054-1.2395.104-1.8163.33684-.5272.2128-1.0007.5399-1.3865.95777-.3928.43725-.6934.94935-.8838 1.50563-.2108.63151-.3123 1.29449-.3 1.96019-.0114.7051.0997 1.4068.3284 2.0738.1972.5709.5105 1.0946.9203 1.5381.3952.418.8767.7448 1.4108.9578.5679.2236 1.1736.3352 1.7838.3287z"/><path d="m66.7239 17.6176h-1.9541c-.1933.0072-.3834-.0514-.5392-.1663-.1387-.1027-.2444-.2438-.304-.4059l-1.0176-2.7515h-5.6231l-1.0135 2.7515c-.0581.1608-.1607.3016-.296.4059-.1551.1204-.347.1835-.5433.1785h-1.9622l5.3353-13.49796h2.5703zm-8.7893-5.0972h4.3298l-1.6541-4.49257c-.077-.19886-.1581-.43018-.2473-.70209s-.1825-.56411-.2716-.88066c-.0852.31655-.1703.61281-.2555.88471-.0851.27191-.1702.51136-.2513.71833z"/><path d="m76.0281 4.11951v2.06162h-4.0825v11.43637h-2.5258v-11.43637h-4.1068v-2.06162z"/><path d="m88.8111 17.6175h-2.546v-5.9008h-6.365v5.9008h-2.546v-13.49799h2.546v5.8034h6.365v-5.8034h2.546z"/><path d="m99.8382 4.11951v1.99669h-6.0285v3.74177h4.7434v1.93173h-4.7434v3.8189h6.0204v2.0089h-8.5582v-13.49799z"/><path d="m103.349 4.13182c.07.00976.138.02887.203.05682.063.03218.122.07317.174.12174.068.06519.13.13577.187.21104l7.127 9.02568c-.024-.2191-.041-.4301-.053-.6412-.012-.211 0-.4058 0-.5844v-8.20186h2.226v13.49796h-1.305c-.171.0044-.341-.0275-.499-.0933-.152-.082-.284-.1971-.385-.3368l-7.099-8.98924c.02.19886.032.40583.04.59252.009.18668 0 .37336 0 .53569v8.29113h-2.225v-13.49796h1.321c.096-.00095.193.00311.288.01218z"/><path d="m127.119 17.6175h-2.546v-5.9008h-6.369v5.9008h-2.542v-13.49799h2.542v5.8034h6.369v-5.8034h2.546z"/><path d="m132.426 17.6175h-2.534v-13.49799h2.538z"/><path d="m143.761 4.11951v1.99669h-6.021v3.74177h4.74v1.93173h-4.74v3.8189h6.021v2.0089h-8.567v-13.49799z"/><path d="m148.192 15.5437h5.437v2.0738h-7.963v-13.49799h2.526z"/><path d="m162.207 12.6379c.093.2111.183.4302.268.6453.089-.2232.178-.4424.271-.6615.094-.2192.195-.4058.304-.625l4.018-7.47542c.04-.08158.092-.15679.154-.22321.049-.05399.11-.09569.178-.12175.072-.02752.147-.04395.223-.0487h.292 1.906v13.49798h-2.226v-8.72945c0-.15827 0-.33684 0-.53164s.024-.40583.045-.58845l-4.099 7.65404c-.084.1652-.21.3052-.365.4058-.157.0996-.341.1505-.527.1461h-.324c-.187.0044-.37-.0465-.527-.1461-.156-.1015-.283-.2412-.369-.4058l-4.16-7.68245c.025.20697.045.40583.053.60469s0 .37742 0 .54381v8.72135h-2.226v-13.49799h1.906.292c.075.00471.148.02114.218.04869.069.02701.132.06853.183.12176.065.06594.119.14117.162.2232l4.054 7.49574c.11.204.209.414.296.629z"/><path d="m179.559 6.57464c-.053.11533-.136.21468-.239.28814-.098.05848-.21.08802-.324.08522-.146-.0112-.286-.06168-.406-.14609-.158-.0974-.344-.20292-.555-.32061-.239-.12923-.489-.23784-.746-.32467-.327-.10032-.668-.14825-1.01-.14204-.31-.00666-.619.0358-.916.12581-.24.07143-.463.19009-.657.34901-.175.14397-.314.32756-.405.5357-.087.21803-.131.45098-.13.68586-.014.29435.081.58347.268.81167.198.22587.439.40945.709.53975.323.1638.66.29958 1.006.40584.373.11769.758.24349 1.147.37742.392.13449.776.29025 1.151.46675.368.1722.707.3994 1.006.6736.301.2796.543.618.709.9943.19.4516.282.9387.268 1.4286.004.5858-.103 1.167-.316 1.7126-.203.524-.517.9977-.921 1.3879-.423.4091-.925.7268-1.475.9334-.647.2336-1.332.3437-2.019.3247-.429.001-.857-.0412-1.277-.1258-.416-.0803-.823-.1999-1.217-.3571-.377-.1507-.738-.3383-1.078-.5601-.324-.2103-.625-.4552-.896-.7305l.73-1.2175c.069-.0886.154-.163.251-.2191.097-.0606.21-.0916.324-.0893.185.0113.361.0777.507.1907.181.1272.396.2625.645.4059.276.1646.568.3005.871.4058.391.138.803.2026 1.217.1907.599.0394 1.193-.1409 1.67-.5073.201-.1839.359-.4106.461-.6634.103-.2528.147-.5253.131-.7976.013-.3117-.081-.6185-.268-.8684-.194-.2359-.436-.4281-.709-.5642-.32-.1699-.657-.306-1.006-.4058-.377-.1055-.758-.2232-1.143-.3449-.391-.1269-.774-.2773-1.147-.4505-.37-.1708-.71-.4011-1.006-.6818-.307-.2969-.549-.65499-.709-1.05112-.192-.49498-.283-1.02352-.268-1.55434 0-.49406.101-.98293.296-1.43664.2-.46866.494-.89131.864-1.24185.404-.37642.878-.67008 1.394-.86442.604-.22855 1.245-.34011 1.89-.32873.755-.00725 1.506.11915 2.217.37337.643.24992 1.226.62986 1.715 1.11604z"/><path d="m184.687 9.77663h.592c.201.00717.401-.02738.588-.10146.161-.06609.301-.17399.406-.3125l3.746-4.71171c.129-.17309.299-.31229.494-.40583.206-.08658.429-.12676.653-.11769h2.177l-4.573 5.60861c-.123.15693-.259.30355-.406.43825-.121.1143-.257.2113-.405.2882.203.0744.392.1828.559.3206.184.1519.346.328.483.5235l4.715 6.3188h-2.234c-.231.013-.462-.0301-.673-.1258-.152-.0896-.279-.2168-.369-.3693l-3.843-4.9877c-.107-.146-.245-.2655-.406-.349-.213-.0792-.441-.1151-.669-.1055h-.81v5.9373h-2.53v-13.51419h2.53z"/><path d="m206.839 17.6176h-1.946c-.194.0072-.384-.0514-.539-.1663-.139-.1027-.245-.2438-.304-.4059l-1.014-2.7515h-5.635l-1.014 2.7515c-.058.1608-.16.3016-.296.4059-.153.1204-.344.1835-.539.1785h-1.962l5.331-13.49796h2.583zm-8.79-5.0972h4.33l-1.654-4.49257c-.073-.19886-.158-.43019-.247-.70209-.089-.27191-.183-.56411-.268-.88066-.089.31655-.174.61281-.259.88471-.085.27191-.166.51135-.248.71833z"/><path d="m105.445 31.9928c.461 0 .835-.3743.835-.836s-.374-.836-.835-.836-.835.3743-.835.836.374.836.835.836z"/><path d="m148.958 31.9928c.461 0 .835-.3743.835-.836s-.374-.836-.835-.836-.835.3743-.835.836.374.836.835.836z"/><path d="m56.4182 27.7114c-.2351-.832-.5716-1.7289-1.6986-1.7289-.1919-.0128-.3843.0151-.5645.082-.1803.067-.3444.1713-.4815.3063-.1371.1349-.2441.2974-.3139.4766-.0699.1793-.1011.3714-.0915.5636 0 .9497.6203 1.388 1.646 1.9237s2.246 1.1282 2.246 2.5811c0 1.3636-1.1555 2.435-2.8825 2.435-.4302-.0027-.8577-.0683-1.269-.1948-.2186-.0747-.4314-.1655-.6365-.2719-.1609-.6679-.2774-1.3458-.3486-2.0292l.3729-.0893c.2109.7914.7906 2.1022 2.1285 2.1022.2074.0203.4168-.0046.6137-.0731.1969-.0684.3766-.1787.5269-.3233.1502-.1447.2674-.3201.3434-.5144.0761-.1943.1092-.4027.0971-.611 0-.9619-.7136-1.4164-1.6865-1.9359-.8311-.4423-2.1406-1.0916-2.1406-2.5567 0-1.2459 1.0013-2.3132 2.6716-2.3132.5527.0174 1.0994.1187 1.6217.3003.0487.4667.1135.974.2189 1.7897z"/><path d="m62.4388 34.2039c-.5959-.6656-1.4149-1.7045-2.1284-2.573-.1662-.2192-.2838-.2841-.4054-.2841-.0702.0031-.1397.0154-.2068.0365v1.4407c0 .8604.1176.9375.9487 1.0146v.3368h-2.919v-.3368c.8676-.0771.9446-.1826.9446-1.0146v-6.1281c0-.8563-.0648-.9212-.8554-.9983v-.3003c.6368-.0877 1.263-.24 1.869-.4546v6.1159c.3131-.0572.5983-.2171.8108-.4545.3342-.3585.6418-.741.9203-1.1444.2594-.4059.2189-.5033-.4054-.5682v-.3409l2.6433-.1136v.3246c-.892.1543-1.1676.2841-1.6704.763-.3243.3247-.5594.5844-1.1189 1.2175.2635.4058 1.573 1.9236 2.0271 2.3782.1551.2084.3537.3806.5819.5047.2282.124.4806.1969.7397.2136v.3368z"/><path d="m68.5119 34.3334c-.2249-.0161-.4391-.1027-.6121-.2475-.1484-.1671-.2541-.3676-.3081-.5844-.519.349-1.1433.8116-1.5325.8116-.2064-.0016-.4104-.0439-.6004-.1246-.1901-.0806-.3623-.198-.5069-.3454s-.2588-.3219-.3359-.5136c-.0771-.1916-.1157-.3966-.1136-.6032 0-.6371.3365-1.0389 1.05-1.2865.707-.1991 1.3876-.4826 2.0271-.8441v-.2313c0-.9375-.4419-1.4691-1.0906-1.4691-.1105-.0033-.2204.0183-.3214.0633-.1011.045-.1907.1121-.2624.1964-.2037.2475-.343.5417-.4054.8563-.0139.0874-.0598.1666-.1287.2221s-.156.0833-.2443.0782c-.1451-.0131-.2813-.076-.3855-.1781-.1041-.102-.1699-.2369-.1861-.3819 0-.1948.1662-.3369.4054-.5195.5875-.4199 1.2472-.728 1.946-.9091.3852-.007.7613.1175 1.0662.3531.2134.2004.3772.4477.4785.7224s.1374.5693.1053.8604v2.4147c0 .5844.2311.7792.4541.7792.1648-.0079.325-.0567.4662-.1421l.1298.3369zm-.9486-3.2751c-.2716.1421-.896.4059-1.1676.5479-.5068.2313-.8108.4789-.8108.9456-.0071.1267.0112.2536.0539.3731s.109.2292.1947.3226c.0858.0935.1895.1688.3048.2215.1154.0526.2401.0816.3668.0852.3864-.0455.749-.21 1.0379-.4707z"/><path d="m72.8336 28.5374c.1928-.1133.4094-.18.6325-.1948 1.4433 0 2.2987 1.1688 2.2987 2.4553 0 1.9602-1.5446 3.2223-3.2433 3.5348-.3115-.0168-.6164-.0969-.896-.2354v1.7005c0 .9861.0933 1.0511 1.1027 1.1444v.349h-3.0608v-.349c.8108-.0771.9446-.1583.9446-1.0146v-5.8683c0-.8441-.0487-.8725-.8555-.974v-.3125c.6446-.1217 1.2749-.3093 1.8812-.56v1.0267zm-1.2162 4.6509c.3263.3175.7612.4989 1.2162.5073 1.0906 0 1.8163-.9375 1.8163-2.4026 0-1.392-.8108-2.1712-1.7392-2.1712-.4751.0578-.9245.2476-1.2974.5479z"/><path d="m80.8368 34.3334c-.225-.0161-.4392-.1027-.6122-.2475-.1483-.1671-.2541-.3676-.3081-.5844-.5189.349-1.1433.8116-1.5325.8116-.2064-.0016-.4104-.0439-.6004-.1246-.19-.0806-.3623-.198-.5069-.3454s-.2587-.3219-.3359-.5136c-.0771-.1916-.1157-.3966-.1136-.6032 0-.6371.3365-1.0389 1.0501-1.2865.7069-.1991 1.3875-.4826 2.027-.8441v-.2313c0-.9375-.4419-1.4691-1.0905-1.4691-.1104-.0024-.22.0196-.3209.0645-.101.0449-.1907.1115-.2629.1952-.2054.2465-.3449.5411-.4054.8563-.0149.0878-.0616.167-.1312.2224-.0695.0554-.1571.0832-.2459.0779-.1451-.0131-.2813-.076-.3855-.1781-.1041-.102-.1699-.2369-.1861-.3819 0-.1948.1703-.3369.4054-.5195.5875-.4199 1.2471-.728 1.946-.9091.3852-.007.7612.1175 1.0662.3531.2133.2004.3771.4477.4785.7224.1013.2747.1374.5693.1053.8604v2.4147c0 .5844.2311.7792.4541.7792.1648-.0079.325-.0567.4662-.1421l.1297.3369zm-.9487-3.2751c-.2716.1421-.896.4059-1.1676.5479-.5068.2313-.8108.4789-.8108.9456-.0071.1267.0112.2536.054.3731.0427.1195.1089.2292.1947.3226.0858.0935.1894.1688.3048.2215.1153.0526.24.0816.3668.0852.3865-.0447.7494-.2093 1.0378-.4707z"/><path d="m85.9731 34.1747v-.3368c.7662-.0771.8595-.1826.8595-1.0795v-2.1672c0-.8969-.3122-1.4813-1.1838-1.4813-.5325.0508-1.0311.2845-1.4109.6616v3.0518c0 .8847.0771.9375.8433 1.0146v.3368h-2.8379v-.3368c.8838-.0893.9487-.1542.9487-1.0146v-2.6866c0-.8117-.0771-.8685-.7784-.9983v-.3004c.6205-.104 1.2262-.2825 1.804-.5316v1.0389c.2595-.1948.5433-.4058.8676-.6128.3127-.2368.6873-.3778 1.0784-.4058 1.0217 0 1.6703.7143 1.6703 1.9764v2.504c0 .8847.0649.9375.8109 1.0146v.3368z"/><path d="m95.6423 33.8384c-.6878.1106-1.3657.2762-2.027.4952v-.8442l-.8109.4667c-.3019.204-.6479.3333-1.0095.3775-1.0378 0-2.4-.9497-2.4-2.7678.0265-.8688.3918-1.6926 1.0178-2.2949.6259-.6023 1.4627-.9353 2.3309-.9274.2907.0066.5789.0558.8554.1461v-1.8344c0-.8563-.0648-.8928-1.0013-.9578v-.3124c.6878-.0909 1.3662-.243 2.027-.4546v7.7514c0 .6778.0933.7427.5717.7914l.4054.0406zm-2.027-4.3505c-.1539-.2094-.3556-.3788-.5885-.4939-.2328-.1151-.4898-.1726-.7494-.1676-.596 0-1.6865.5073-1.6865 2.3904 0 1.5421.9486 2.297 1.7797 2.297.4507-.0149.8855-.1695 1.2447-.4424z"/><path d="m100.908 33.0713c-.81 1.0268-1.7104 1.2622-2.1158 1.2622-1.5933 0-2.5298-1.2987-2.5298-2.7678-.0095-.8389.2974-1.6504.8595-2.2727.2342-.2822.5246-.5124.8527-.6759.3281-.1636.6866-.2568 1.0527-.2737.5145.0204 1.0017.2361 1.3637.6031.361.3671.569.8581.582 1.3733 0 .2597-.065.3612-.3.4058-.235.0447-1.8403.1705-3.3849.2232 0 1.7654 1.0257 2.4918 1.9338 2.4918.5609-.0141 1.0931-.2506 1.4801-.6574zm-3.555-2.6501c.7297 0 1.4392 0 2.1933-.0365.2351 0 .3121-.0771.3121-.2597.0145-.1613-.0041-.3239-.0544-.4778-.0504-.1539-.1315-.2959-.2385-.4174s-.2375-.2199-.3837-.2893-.305-.1082-.4666-.1142c-.596 0-1.1676.5438-1.3622 1.5949z"/><path d="m117.891 34.1749v-.3612c1.05-.1055 1.103-.1704 1.091-1.5462l-.04-5.3002h-.049l-3.166 7.1183h-.26l-2.907-6.9356h-.024l-.195 3.7012c-.052 1.0632-.052 1.6233-.04 2.1549.024.625.336.7143 1.192.8117v.3612h-3.021v-.3612c.75-.0933 1.01-.2354 1.103-.7792.065-.4545.142-1.0268.247-2.3782l.179-2.7028c.117-1.6883.053-1.737-1.127-1.8547v-.3652h2.128l2.956 6.4933 3-6.4933h2.201v.3652c-1.139.1055-1.216.1299-1.192 1.4651l.13 4.7036c.04 1.3757.077 1.4407 1.216 1.5462v.3612z"/><path d="m127.492 31.241c0 2.0901-1.529 3.0925-2.814 3.0925-.376.0033-.749-.069-1.097-.2126s-.664-.3557-.929-.6236c-.264-.2679-.472-.5862-.612-.9362-.139-.3499-.207-.7242-.2-1.1009-.021-.3918.037-.7838.169-1.1533.131-.3694.335-.709.599-.999.264-.2899.583-.5245.939-.6901.355-.1656.739-.2588 1.131-.2744.376-.0002.749.0753 1.096.2219s.66.3613.923.6315c.262.2702.468.5903.604.9415.137.3511.202.7261.191 1.1027zm-4.537-4.6752c-.001-.0842.015-.1678.046-.246s.077-.1495.136-.2098.129-.1084.206-.1416.16-.0508.245-.0519c.168 0 .33.0671.45.1866.119.1195.186.2816.186.4506 0 .1689-.067.331-.186.4505-.12.1195-.282.1866-.45.1866-.166-.002-.325-.0683-.443-.1848-.118-.1166-.186-.2743-.19-.4402zm.089 4.4642c0 1.6233.714 2.8408 1.776 2.8408.811 0 1.468-.5966 1.468-2.3782 0-1.5178-.609-2.7515-1.74-2.7515-.802.0325-1.504.836-1.504 2.3051zm2.1-4.4642c.002-.1218.04-.2404.108-.3409.069-.1004.166-.1782.279-.2235s.237-.0562.356-.0311c.119.025.228.0848.313.1718.086.087.143.1973.166.317s.009.2434-.038.3556c-.048.1121-.127.2077-.229.2747-.102.0669-.221.1022-.343.1014-.162-.0052-.317-.0731-.431-.1895s-.179-.2724-.181-.4355z"/><path d="m130.816 34.1623c-.167.0958-.352.154-.543.1704-.811 0-1.273-.5195-1.273-1.5462v-3.7783h-.896l-.053-.1299.353-.3774h.596v-.9496l.843-.8564.182.0244v1.7816h1.464c.054.0784.076.1746.062.269-.014.0943-.064.1796-.139.2383h-1.387v3.3359c0 1.0511.406 1.2459.75 1.2459.284-.0113.561-.0862.811-.2191l.118.3368z"/><path d="m136.836 33.0713c-.811 1.0268-1.715 1.2622-2.116 1.2622-1.593 0-2.53-1.2987-2.53-2.7678-.01-.8389.297-1.6504.86-2.2727.234-.2822.524-.5124.852-.6759.328-.1636.687-.2568 1.053-.2737.514.0204 1.002.2361 1.363.6031.362.3671.57.8581.583 1.3733 0 .2597-.065.3612-.3.4058-.235.0447-1.841.1705-3.385.2232 0 1.7654 1.025 2.4918 1.934 2.4918.559-.0129 1.091-.2462 1.479-.6493zm-3.555-2.6501c.725 0 1.439 0 2.193-.0365.231 0 .312-.0771.312-.2597.014-.1613-.004-.3239-.054-.4778-.051-.1539-.132-.2959-.239-.4174s-.237-.2199-.384-.2893c-.146-.0694-.305-.1082-.466-.1142-.596 0-1.168.5438-1.362 1.5949z"/><path d="m141.312 34.1747v-.3368c.766-.0771.855-.1826.855-1.0795v-2.1672c0-.8969-.312-1.4813-1.179-1.4813-.534.0508-1.034.2845-1.415.6616v3.0518c0 .8847.077.9375.843 1.0146v.3368h-2.822v-.3368c.88-.0893.945-.1542.945-1.0146v-2.6866c0-.8117-.077-.8685-.778-.9983v-.3004c.62-.104 1.226-.2825 1.804-.5316v1.0389c.259-.1948.547-.4058.871-.6128.311-.238.684-.3791 1.075-.4058 1.025 0 1.674.7143 1.674 1.9764v2.504c0 .8847.065.9375.811 1.0146v.3368z"/><path d="m162.613 26.1011c-1.062.0893-1.168.1542-1.168 1.2175v5.2636c0 1.0877.106 1.1526 1.156 1.2175v.3612h-3.475v-.3612c1.103-.0811 1.216-.1461 1.216-1.2175v-2.5973h-4.423v2.5973c0 1.0755.106 1.1526 1.168 1.2175v.3612h-3.41v-.3612c1.038-.0811 1.14-.1461 1.14-1.2175v-5.2474c0-1.0917-.102-1.1444-1.168-1.2175v-.3652h3.361v.3652c-.985.0893-1.091.1542-1.091 1.2175v2.1022h4.427v-2.1022c0-1.0795-.105-1.1444-1.118-1.2175v-.3652h3.385z"/><path d="m163.306 34.1758v-.3368c.811-.0771.908-.1542.908-1.0389v-2.6745c0-.8116-.041-.8563-.811-.9861v-.3125c.631-.0962 1.249-.2665 1.841-.5073v4.4641c0 .8848.093.9619.924 1.039v.3368zm.685-7.6215c-.001-.0877.015-.1748.048-.2562.033-.0815.081-.1556.142-.2182.062-.0626.135-.1125.216-.1467s.167-.052.255-.0526c.087-.0006.174.0166.255.0505.08.034.153.084.214.147.06.063.108.1377.139.2196.03.0819.044.1692.041.2566-.002.1751-.071.3428-.195.4666s-.291.1939-.466.1949c-.172-.0081-.334-.0808-.454-.2034-.12-.1227-.19-.2863-.195-.4581z"/><path d="m170.141 30.0329c-.247-.763-.701-1.2825-1.337-1.2825-.115.0004-.229.0242-.334.0698s-.2.1122-.279.1957-.14.1822-.18.29c-.039.1079-.057.2226-.051.3374 0 .5844.519.8847 1.103 1.1322.973.4059 1.622.8685 1.622 1.7654 0 1.181-1.103 1.7938-2.141 1.7938-.531.0085-1.051-.1458-1.492-.4424-.136-.5001-.207-1.0157-.211-1.534l.341-.0649c.231.8563.811 1.6233 1.593 1.6233.121.0021.24-.0198.352-.0646.112-.0447.214-.1114.299-.1961.086-.0847.154-.1857.2-.297s.07-.2308.069-.3514c0-.5722-.373-.8847-1.021-1.181-.779-.3652-1.622-.8116-1.622-1.7937 0-.9091.779-1.6761 1.97-1.6761.397-.0031.789.0727 1.156.2232.128.4551.223.919.284 1.3879z"/><path d="m174.009 34.1623c-.168.096-.355.1542-.548.1704-.811 0-1.269-.5195-1.269-1.5462v-3.7783h-.896l-.052-.1299.352-.3774h.596v-.9496l.844-.8564.182.0244v1.7816h1.464c.054.0784.076.1746.062.269-.014.0943-.064.1796-.139.2383h-1.387v3.3359c0 1.0511.426 1.2459.75 1.2459.283-.0113.56-.0862.811-.2191l.113.3368z"/><path d="m181.039 31.241c0 2.0901-1.529 3.0925-2.814 3.0925-.377.0039-.75-.068-1.098-.2115-.348-.1434-.664-.3554-.929-.6235-.265-.268-.473-.5865-.612-.9367-.14-.3502-.207-.7248-.199-1.1016-.021-.3918.037-.7838.168-1.1533.132-.3694.336-.709.6-.999.264-.2899.583-.5245.938-.6901.356-.1656.74-.2588 1.132-.2744.376-.0002.749.0753 1.096.2219.346.1466.66.3613.923.6315.262.2702.468.5903.604.9415.137.3511.201.7261.191 1.1027zm-4.46-.1948c0 1.6234.714 2.8409 1.776 2.8409.811 0 1.467-.5966 1.467-2.3782 0-1.5178-.612-2.7516-1.739-2.7516-.79.0163-1.492.8198-1.492 2.2889z"/><path d="m183.739 29.7228c.405-.6494.948-1.3799 1.568-1.3799.163-.0225.327.0154.464.1064.136.0909.234.2288.275.3873.042.1585.024.3268-.05.4729-.075.1461-.2.2599-.352.3199-.053.0329-.116.0483-.178.0439-.063-.0044-.122-.0282-.171-.0682-.064-.0834-.146-.1512-.24-.1983s-.198-.0723-.303-.0736c-.34 0-.754.4058-1.038 1.116v2.3741c0 .8604.065.9375 1.062 1.0146v.3368h-2.992v-.3368c.811-.0771.896-.1542.896-1.0146v-2.6866c0-.8563-.064-.9091-.81-1.0146v-.2841c.629-.0986 1.244-.2773 1.828-.5316v1.4164z"/><path d="m186.67 34.1758v-.3368c.811-.0771.908-.1542.908-1.0389v-2.6745c0-.8116-.036-.8563-.811-.9861v-.3125c.631-.0967 1.249-.267 1.841-.5073v4.4641c0 .8848.093.9619.92 1.039v.3368zm.689-7.6215c-.001-.0877.015-.1748.048-.2562.033-.0815.081-.1556.143-.2182.061-.0626.134-.1125.215-.1467s.167-.052.255-.0526c.087-.0006.174.0166.255.0505.08.034.153.084.214.147.06.063.108.1377.139.2196.03.0819.044.1692.041.2566-.001.1751-.071.3428-.195.4666s-.291.1939-.466.1949c-.172-.0081-.334-.0808-.454-.2034-.12-.1227-.19-.2863-.195-.4581z"/><path d="m194.287 34.3334c-.225-.0161-.439-.1027-.612-.2475-.148-.1671-.254-.3676-.308-.5844-.519.349-1.143.8116-1.532.8116-.207-.0016-.411-.0439-.601-.1246-.19-.0806-.362-.198-.507-.3454-.144-.1474-.258-.3219-.336-.5136-.077-.1916-.115-.3966-.113-.6032 0-.6371.336-1.0389 1.05-1.2865.707-.1991 1.387-.4826 2.027-.8441v-.2313c0-.9375-.442-1.4691-1.091-1.4691-.11-.0033-.22.0183-.321.0633s-.191.1121-.262.1964c-.204.2475-.344.5417-.406.8563-.014.0874-.06.1666-.129.2221s-.156.0833-.244.0782c-.145-.0131-.281-.076-.385-.1781-.105-.102-.17-.2369-.187-.3819 0-.1948.167-.3369.406-.5195.587-.4199 1.247-.728 1.946-.9091.385-.007.761.1175 1.066.3531.213.2004.377.4477.479.7224.101.2747.137.5693.105.8604v2.4147c0 .5844.231.7792.45.7792.166-.0074.328-.0562.47-.1421l.13.3369zm-.948-3.2751c-.272.1421-.896.4059-1.168.5479-.507.2313-.79.4789-.79.9456-.008.1267.011.2536.053.3731.043.1195.109.2292.195.3226.086.0935.19.1688.305.2215.115.0526.24.0816.367.0852.386-.0455.749-.21 1.038-.4707z"/><path d="m1.03091 12.2783c1.93788-5.58421 6.42176-8.92827 11.25019-11.586468 1.3176-.7223813 3.4136-.811665 4.865-.320607 3.4825 1.124155 6.7947 2.763715 10.1962 4.139495 3.4014 1.37577 5.6758.16639 4.6176 1.54622-2.8095 3.65249-6.5839 4.78066-10.7718 2.86517-1.9176-.87659-3.7501-1.94799-5.6758-2.75966-3.1785-1.33518-6.4177-1.18097-9.27587 1.24997-3.17844 2.70688-4.45955 6.19298-3.40142 10.31628 1.28922 5.0282 4.75145 8.1369 9.35289 10.1174 5.4731 2.3538 11.0191 1.8871 16.4679 0 2.6676-.9253 4.565-2.918 4.5528-5.9333 0-1.3352-.4054-3.344-1.2892-3.831-1.0946-.5966-3.0487-.3004-4.3298.2759-1.9744.8807-6.6367 5.6817-11.903 4.9918-3.2433-.4302-6.00415-4.0097-5.84199-5.2109.12568-.9334.18239 0 4.88929-.6656 3.5393-.5032 6.1299-3.1452 8.0596-4.3302 3.6487-2.2443 6.7623-2.1469 9.4827 1.1404 5.0352 6.0874 1.7554 14.8778-3.6042 18.7657-9.2353 6.7002-23.40451 3.2466-27.05323-8.4414-.16217-.5194-2.282485-6.473-.58786-12.3292z"/></g></svg>