<svg width="207" height="38" viewBox="0 0 207 38" fill="none" xmlns="http://www.w3.org/2000/svg">
<path d="M47.7264 15.7669C48.2268 15.7756 48.7263 15.7238 49.2143 15.6127C49.6322 15.5181 50.0396 15.3822 50.4305 15.2068V12.7353H48.7278C48.6543 12.7422 48.5802 12.7335 48.5103 12.7098C48.4405 12.686 48.3764 12.6477 48.3224 12.5973C48.2775 12.5554 48.242 12.5044 48.2182 12.4478C48.1944 12.3911 48.183 12.33 48.1845 12.2686V10.8685H52.713V16.331C52.3754 16.5683 52.0187 16.7773 51.6468 16.956C51.2577 17.1482 50.8502 17.3005 50.4305 17.4105C49.9863 17.5328 49.5337 17.6223 49.0764 17.6783C48.5583 17.7371 48.0371 17.7655 47.5156 17.7636C46.5801 17.7739 45.6517 17.6001 44.7831 17.2522C43.9707 16.9276 43.2334 16.4396 42.617 15.8183C42.0005 15.1971 41.518 14.4558 41.1993 13.6403C40.8562 12.7572 40.6869 11.816 40.7006 10.8685C40.6898 9.91465 40.8589 8.96734 41.1993 8.07635C41.5127 7.25825 41.9932 6.51461 42.6101 5.89298C43.244 5.27006 44.0006 4.7863 44.8318 4.47256C45.7693 4.12481 46.7632 3.95418 47.7629 3.96933C48.745 3.9466 49.7222 4.11332 50.6413 4.46039C51.4006 4.75406 52.0989 5.18614 52.7008 5.7347L51.9711 6.87103C51.9153 6.97531 51.8323 7.06247 51.7309 7.12323C51.6295 7.18398 51.5136 7.21604 51.3954 7.21599C51.2319 7.21214 51.0729 7.16143 50.9373 7.06989C50.7346 6.94814 50.5319 6.83045 50.3211 6.71276C50.0964 6.5903 49.8618 6.48712 49.6197 6.40433C49.3401 6.31213 49.0542 6.24025 48.7643 6.18924C48.4022 6.13228 48.0361 6.10513 47.6697 6.10807C47.0478 6.09753 46.4302 6.21207 45.8534 6.44491C45.3262 6.65771 44.8527 6.98481 44.4669 7.40268C44.0741 7.83993 43.7735 8.35203 43.5831 8.90831C43.3723 9.53982 43.2708 10.2028 43.2831 10.8685C43.2717 11.5736 43.3828 12.2753 43.6115 12.9423C43.8087 13.5132 44.122 14.0369 44.5318 14.4804C44.927 14.8984 45.4085 15.2252 45.9426 15.4382C46.5105 15.6618 47.1162 15.7734 47.7264 15.7669Z" fill="white"/>
<path d="M66.7239 17.6176H64.7698C64.5765 17.6248 64.3864 17.5662 64.2306 17.4513C64.0919 17.3486 63.9862 17.2075 63.9266 17.0454L62.909 14.2939H57.2859L56.2724 17.0454C56.2143 17.2062 56.1117 17.347 55.9764 17.4513C55.8213 17.5717 55.6294 17.6348 55.4331 17.6298H53.4709L58.8062 4.13184H61.3765L66.7239 17.6176ZM57.9346 12.5204H62.2644L60.6103 8.02783C60.5333 7.82897 60.4522 7.59765 60.363 7.32574C60.2738 7.05383 60.1805 6.76163 60.0914 6.44508C60.0062 6.76163 59.9211 7.05789 59.8359 7.32979C59.7508 7.6017 59.6657 7.84115 59.5846 8.04812L57.9346 12.5204Z" fill="white"/>
<path d="M76.0281 4.11951V6.18113H71.9456V17.6175H69.4198V6.18113H65.313V4.11951H76.0281Z" fill="white"/>
<path d="M88.8111 17.6175H86.2651V11.7167H79.9001V17.6175H77.3541V4.11951H79.9001V9.92291H86.2651V4.11951H88.8111V17.6175Z" fill="white"/>
<path d="M99.8382 4.11951V6.1162H93.8097V9.85797H98.5531V11.7897H93.8097V15.6086H99.8301V17.6175H91.2719V4.11951H99.8382Z" fill="white"/>
<path d="M103.349 4.13182C103.419 4.14158 103.487 4.16069 103.552 4.18864C103.615 4.22082 103.674 4.26181 103.726 4.31038C103.794 4.37557 103.856 4.44615 103.913 4.52142L111.04 13.5471C111.016 13.328 110.999 13.117 110.987 12.9059C110.975 12.6949 110.987 12.5001 110.987 12.3215V4.11964H113.213V17.6176H111.908C111.737 17.622 111.567 17.5901 111.409 17.5243C111.257 17.4423 111.125 17.3272 111.024 17.1875L103.925 8.19826C103.945 8.39712 103.957 8.60409 103.965 8.79078C103.974 8.97746 103.965 9.16414 103.965 9.32647V17.6176H101.74V4.11964H103.061C103.157 4.11869 103.254 4.12275 103.349 4.13182Z" fill="white"/>
<path d="M127.119 17.6175H124.573V11.7167H118.204V17.6175H115.662V4.11951H118.204V9.92291H124.573V4.11951H127.119V17.6175Z" fill="white"/>
<path d="M132.426 17.6175H129.892V4.11951H132.43L132.426 17.6175Z" fill="white"/>
<path d="M143.761 4.11951V6.1162H137.74V9.85797H142.48V11.7897H137.74V15.6086H143.761V17.6175H135.194V4.11951H143.761Z" fill="white"/>
<path d="M148.192 15.5437H153.629V17.6175H145.666V4.11951H148.192V15.5437Z" fill="white"/>
<path d="M162.207 12.6379C162.3 12.849 162.39 13.0681 162.475 13.2832C162.564 13.06 162.653 12.8408 162.746 12.6217C162.84 12.4025 162.941 12.2159 163.05 11.9967L167.068 4.52128C167.108 4.4397 167.16 4.36449 167.222 4.29807C167.271 4.24408 167.332 4.20238 167.4 4.17632C167.472 4.1488 167.547 4.13237 167.623 4.12762H167.915H169.821V17.6256H167.595V8.89615C167.595 8.73788 167.595 8.55931 167.595 8.36451C167.595 8.16971 167.619 7.95868 167.64 7.77606L163.541 15.4301C163.457 15.5953 163.331 15.7353 163.176 15.8359C163.019 15.9355 162.835 15.9864 162.649 15.982H162.325C162.138 15.9864 161.955 15.9355 161.798 15.8359C161.642 15.7344 161.515 15.5947 161.429 15.4301L157.269 7.74765C157.294 7.95462 157.314 8.15348 157.322 8.35234C157.33 8.5512 157.322 8.72976 157.322 8.89615V17.6175H155.096V4.11951H157.002H157.294C157.369 4.12422 157.442 4.14065 157.512 4.1682C157.581 4.19521 157.644 4.23673 157.695 4.28996C157.76 4.3559 157.814 4.43113 157.857 4.51316L161.911 12.0089C162.021 12.2129 162.12 12.4229 162.207 12.6379Z" fill="white"/>
<path d="M179.559 6.57464C179.506 6.68997 179.423 6.78932 179.32 6.86278C179.222 6.92126 179.11 6.9508 178.996 6.948C178.85 6.9368 178.71 6.88632 178.59 6.80191C178.432 6.70451 178.246 6.59899 178.035 6.4813C177.796 6.35207 177.546 6.24346 177.289 6.15663C176.962 6.05631 176.621 6.00838 176.279 6.01459C175.969 6.00793 175.66 6.05039 175.363 6.1404C175.123 6.21183 174.9 6.33049 174.706 6.48941C174.531 6.63338 174.392 6.81697 174.301 7.02511C174.214 7.24314 174.17 7.47609 174.171 7.71097C174.157 8.00532 174.252 8.29444 174.439 8.52264C174.637 8.74851 174.878 8.93209 175.148 9.06239C175.471 9.22619 175.808 9.36197 176.154 9.46823C176.527 9.58592 176.912 9.71172 177.301 9.84565C177.693 9.98014 178.077 10.1359 178.452 10.3124C178.82 10.4846 179.159 10.7118 179.458 10.986C179.759 11.2656 180.001 11.604 180.167 11.9803C180.357 12.4319 180.449 12.919 180.435 13.4089C180.439 13.9947 180.332 14.5759 180.119 15.1215C179.916 15.6455 179.602 16.1192 179.198 16.5094C178.775 16.9185 178.273 17.2362 177.723 17.4428C177.076 17.6764 176.391 17.7865 175.704 17.7675C175.275 17.7685 174.847 17.7263 174.427 17.6417C174.011 17.5614 173.604 17.4418 173.21 17.2846C172.833 17.1339 172.472 16.9463 172.132 16.7245C171.808 16.5142 171.507 16.2693 171.236 15.994L171.966 14.7765C172.035 14.6879 172.12 14.6135 172.217 14.5574C172.314 14.4968 172.427 14.4658 172.541 14.4681C172.726 14.4794 172.902 14.5458 173.048 14.6588C173.229 14.786 173.444 14.9213 173.693 15.0647C173.969 15.2293 174.261 15.3652 174.564 15.4705C174.955 15.6085 175.367 15.6731 175.781 15.6612C176.38 15.7006 176.974 15.5203 177.451 15.1539C177.652 14.97 177.81 14.7433 177.912 14.4905C178.015 14.2377 178.059 13.9652 178.043 13.6929C178.056 13.3812 177.962 13.0744 177.775 12.8245C177.581 12.5886 177.339 12.3964 177.066 12.2603C176.746 12.0904 176.409 11.9543 176.06 11.8545C175.683 11.749 175.302 11.6313 174.917 11.5096C174.526 11.3827 174.143 11.2323 173.77 11.0591C173.4 10.8883 173.06 10.658 172.764 10.3773C172.457 10.0804 172.215 9.72231 172.055 9.32618C171.863 8.8312 171.772 8.30266 171.787 7.77184C171.787 7.27778 171.888 6.78891 172.083 6.3352C172.283 5.86654 172.577 5.44389 172.947 5.09335C173.351 4.71693 173.825 4.42327 174.341 4.22893C174.945 4.00038 175.586 3.88882 176.231 3.9002C176.986 3.89295 177.737 4.01935 178.448 4.27357C179.091 4.52349 179.674 4.90343 180.163 5.38961L179.559 6.57464Z" fill="white"/>
<path d="M184.687 9.77663H185.279C185.48 9.7838 185.68 9.74925 185.867 9.67517C186.028 9.60908 186.168 9.50118 186.273 9.36267L190.019 4.65096C190.148 4.47787 190.318 4.33867 190.513 4.24513C190.719 4.15855 190.942 4.11837 191.166 4.12744H193.343L188.77 9.73605C188.647 9.89298 188.511 10.0396 188.364 10.1743C188.243 10.2886 188.107 10.3856 187.959 10.4625C188.162 10.5369 188.351 10.6453 188.518 10.7831C188.702 10.935 188.864 11.1111 189.001 11.3066L193.716 17.6254H191.482C191.251 17.6384 191.02 17.5953 190.809 17.4996C190.657 17.41 190.53 17.2828 190.44 17.1303L186.597 12.1426C186.49 11.9966 186.352 11.8771 186.191 11.7936C185.978 11.7144 185.75 11.6785 185.522 11.6881H184.712V17.6254H182.182V4.11121H184.712L184.687 9.77663Z" fill="white"/>
<path d="M206.839 17.6176H204.893C204.699 17.6248 204.509 17.5662 204.354 17.4513C204.215 17.3486 204.109 17.2075 204.05 17.0454L203.036 14.2939H197.401L196.387 17.0454C196.329 17.2062 196.227 17.347 196.091 17.4513C195.938 17.5717 195.747 17.6348 195.552 17.6298H193.59L198.921 4.13184H201.504L206.839 17.6176ZM198.049 12.5204H202.379L200.725 8.02783C200.652 7.82897 200.567 7.59764 200.478 7.32574C200.389 7.05383 200.295 6.76163 200.21 6.44508C200.121 6.76163 200.036 7.05789 199.951 7.32979C199.866 7.6017 199.785 7.84114 199.703 8.04812L198.049 12.5204Z" fill="white"/>
<path d="M105.445 31.9928C105.906 31.9928 106.28 31.6185 106.28 31.1568C106.28 30.6951 105.906 30.3208 105.445 30.3208C104.984 30.3208 104.61 30.6951 104.61 31.1568C104.61 31.6185 104.984 31.9928 105.445 31.9928Z" fill="white"/>
<path d="M148.958 31.9928C149.419 31.9928 149.793 31.6185 149.793 31.1568C149.793 30.6951 149.419 30.3208 148.958 30.3208C148.497 30.3208 148.123 30.6951 148.123 31.1568C148.123 31.6185 148.497 31.9928 148.958 31.9928Z" fill="white"/>
<path d="M56.4182 27.7114C56.1831 26.8794 55.8466 25.9825 54.7196 25.9825C54.5277 25.9697 54.3353 25.9976 54.1551 26.0645C53.9748 26.1315 53.8107 26.2358 53.6736 26.3708C53.5365 26.5057 53.4295 26.6682 53.3597 26.8474C53.2898 27.0267 53.2586 27.2188 53.2682 27.411C53.2682 28.3607 53.8885 28.799 54.9142 29.3347C55.9399 29.8704 57.1602 30.4629 57.1602 31.9158C57.1602 33.2794 56.0047 34.3508 54.2777 34.3508C53.8475 34.3481 53.42 34.2825 53.0087 34.156C52.7901 34.0813 52.5773 33.9905 52.3722 33.8841C52.2113 33.2162 52.0948 32.5383 52.0236 31.8549L52.3965 31.7656C52.6074 32.557 53.1871 33.8678 54.525 33.8678C54.7324 33.8881 54.9418 33.8632 55.1387 33.7947C55.3356 33.7263 55.5153 33.616 55.6656 33.4714C55.8158 33.3267 55.933 33.1513 56.009 32.957C56.0851 32.7627 56.1182 32.5543 56.1061 32.346C56.1061 31.3841 55.3925 30.9296 54.4196 30.4101C53.5885 29.9678 52.279 29.3185 52.279 27.8534C52.279 26.6075 53.2803 25.5402 54.9506 25.5402C55.5033 25.5576 56.05 25.6589 56.5723 25.8405C56.621 26.3072 56.6858 26.8145 56.7912 27.6302L56.4182 27.7114Z" fill="white"/>
<path d="M62.4388 34.2039C61.8429 33.5383 61.0239 32.4994 60.3104 31.6309C60.1442 31.4117 60.0266 31.3468 59.905 31.3468C59.8348 31.3499 59.7653 31.3622 59.6982 31.3833V32.824C59.6982 33.6844 59.8158 33.7615 60.6469 33.8386V34.1754H57.7279V33.8386C58.5955 33.7615 58.6725 33.656 58.6725 32.824V26.6959C58.6725 25.8396 58.6077 25.7747 57.8171 25.6976V25.3973C58.4539 25.3096 59.0801 25.1573 59.6861 24.9427V31.0586C59.9992 31.0014 60.2844 30.8415 60.4969 30.6041C60.8311 30.2456 61.1387 29.8631 61.4172 29.4597C61.6766 29.0538 61.6361 28.9564 61.0118 28.8915V28.5506L63.6551 28.437V28.7616C62.7631 28.9159 62.4875 29.0457 61.9847 29.5246C61.6604 29.8493 61.4253 30.109 60.8658 30.7421C61.1293 31.1479 62.4388 32.6657 62.8929 33.1203C63.048 33.3287 63.2466 33.5009 63.4748 33.625C63.703 33.749 63.9554 33.8219 64.2145 33.8386V34.1754L62.4388 34.2039Z" fill="white"/>
<path d="M68.5119 34.3334C68.287 34.3173 68.0728 34.2307 67.8998 34.0859C67.7514 33.9188 67.6457 33.7183 67.5917 33.5015C67.0727 33.8505 66.4484 34.3131 66.0592 34.3131C65.8528 34.3115 65.6488 34.2692 65.4588 34.1885C65.2687 34.1079 65.0965 33.9905 64.9519 33.8431C64.8073 33.6957 64.6931 33.5212 64.616 33.3295C64.5389 33.1379 64.5003 32.9329 64.5024 32.7263C64.5024 32.0892 64.8389 31.6874 65.5524 31.4398C66.2594 31.2407 66.94 30.9572 67.5795 30.5957V30.3644C67.5795 29.4269 67.1376 28.8953 66.4889 28.8953C66.3784 28.892 66.2685 28.9136 66.1675 28.9586C66.0664 29.0036 65.9768 29.0707 65.9051 29.155C65.7014 29.4025 65.5621 29.6967 65.4997 30.0113C65.4858 30.0987 65.4399 30.1779 65.371 30.2334C65.3021 30.2889 65.215 30.3167 65.1267 30.3116C64.9816 30.2985 64.8454 30.2356 64.7412 30.1335C64.6371 30.0315 64.5713 29.8966 64.5551 29.7516C64.5551 29.5568 64.7213 29.4147 64.9605 29.2321C65.548 28.8122 66.2077 28.5041 66.9065 28.323C67.2917 28.316 67.6678 28.4405 67.9727 28.6761C68.1861 28.8765 68.3499 29.1238 68.4512 29.3985C68.5525 29.6732 68.5886 29.9678 68.5565 30.2589V32.6736C68.5565 33.258 68.7876 33.4528 69.0106 33.4528C69.1754 33.4449 69.3356 33.3961 69.4768 33.3107L69.6066 33.6476L68.5119 34.3334ZM67.5633 31.0583C67.2917 31.2004 66.6673 31.4642 66.3957 31.6062C65.8889 31.8375 65.5849 32.0851 65.5849 32.5518C65.5778 32.6785 65.5961 32.8054 65.6388 32.9249C65.6815 33.0444 65.7478 33.1541 65.8335 33.2475C65.9193 33.341 66.023 33.4163 66.1383 33.469C66.2537 33.5216 66.3784 33.5506 66.5051 33.5542C66.8915 33.5087 67.2541 33.3442 67.543 33.0835L67.5633 31.0583Z" fill="white"/>
<path d="M72.8336 28.5374C73.0264 28.4241 73.243 28.3574 73.4661 28.3426C74.9094 28.3426 75.7648 29.5114 75.7648 30.7979C75.7648 32.7581 74.2202 34.0202 72.5215 34.3327C72.21 34.3159 71.9051 34.2358 71.6255 34.0973V35.7978C71.6255 36.7839 71.7188 36.8489 72.7282 36.9422V37.2912H69.6674V36.9422C70.4782 36.8651 70.612 36.7839 70.612 35.9276V30.0593C70.612 29.2152 70.5633 29.1868 69.7565 29.0853V28.7728C70.4011 28.6511 71.0314 28.4635 71.6377 28.2128V29.2395L72.8336 28.5374ZM71.6174 33.1883C71.9437 33.5058 72.3786 33.6872 72.8336 33.6956C73.9242 33.6956 74.6499 32.7581 74.6499 31.293C74.6499 29.901 73.8391 29.1218 72.9107 29.1218C72.4356 29.1796 71.9862 29.3694 71.6133 29.6697L71.6174 33.1883Z" fill="white"/>
<path d="M80.8368 34.3334C80.6118 34.3173 80.3976 34.2307 80.2246 34.0859C80.0763 33.9188 79.9705 33.7183 79.9165 33.5015C79.3976 33.8505 78.7732 34.3131 78.384 34.3131C78.1776 34.3115 77.9736 34.2692 77.7836 34.1885C77.5936 34.1079 77.4213 33.9905 77.2767 33.8431C77.1321 33.6957 77.018 33.5212 76.9408 33.3295C76.8637 33.1379 76.8251 32.9329 76.8272 32.7263C76.8272 32.0892 77.1637 31.6874 77.8773 31.4398C78.5842 31.2407 79.2648 30.9572 79.9043 30.5957V30.3644C79.9043 29.4269 79.4624 28.8953 78.8138 28.8953C78.7034 28.8929 78.5938 28.9149 78.4929 28.9598C78.3919 29.0047 78.3022 29.0713 78.23 29.155C78.0246 29.4015 77.8851 29.6961 77.8246 30.0113C77.8097 30.0991 77.763 30.1783 77.6934 30.2337C77.6239 30.2891 77.5363 30.3169 77.4475 30.3116C77.3024 30.2985 77.1662 30.2356 77.062 30.1335C76.9579 30.0315 76.8921 29.8966 76.8759 29.7516C76.8759 29.5568 77.0462 29.4147 77.2813 29.2321C77.8688 28.8122 78.5284 28.5041 79.2273 28.323C79.6125 28.316 79.9885 28.4405 80.2935 28.6761C80.5068 28.8765 80.6706 29.1238 80.772 29.3985C80.8733 29.6732 80.9094 29.9678 80.8773 30.2589V32.6736C80.8773 33.258 81.1084 33.4528 81.3314 33.4528C81.4962 33.4449 81.6564 33.3961 81.7976 33.3107L81.9273 33.6476L80.8368 34.3334ZM79.8881 31.0583C79.6165 31.2004 78.9921 31.4642 78.7205 31.6062C78.2137 31.8375 77.9097 32.0851 77.9097 32.5518C77.9026 32.6785 77.9209 32.8054 77.9637 32.9249C78.0064 33.0444 78.0726 33.1541 78.1584 33.2475C78.2442 33.341 78.3478 33.4163 78.4632 33.469C78.5785 33.5216 78.7032 33.5506 78.83 33.5542C79.2165 33.5095 79.5794 33.3449 79.8678 33.0835L79.8881 31.0583Z" fill="white"/>
<path d="M85.9731 34.1747V33.8379C86.7393 33.7608 86.8326 33.6553 86.8326 32.7584V30.5912C86.8326 29.6943 86.5204 29.1099 85.6488 29.1099C85.1163 29.1607 84.6177 29.3944 84.2379 29.7715V32.8233C84.2379 33.708 84.315 33.7608 85.0812 33.8379V34.1747H82.2433V33.8379C83.1271 33.7486 83.192 33.6837 83.192 32.8233V30.1367C83.192 29.325 83.1149 29.2682 82.4136 29.1384V28.838C83.0341 28.734 83.6398 28.5555 84.2176 28.3064V29.3453C84.4771 29.1505 84.7609 28.9395 85.0852 28.7325C85.3979 28.4957 85.7725 28.3547 86.1636 28.3267C87.1853 28.3267 87.8339 29.041 87.8339 30.3031V32.8071C87.8339 33.6918 87.8988 33.7446 88.6448 33.8217V34.1585L85.9731 34.1747Z" fill="white"/>
<path d="M95.6423 33.8384C94.9545 33.949 94.2766 34.1146 93.6153 34.3336V33.4894L92.8044 33.9561C92.5025 34.1601 92.1565 34.2894 91.7949 34.3336C90.7571 34.3336 89.3949 33.3839 89.3949 31.5658C89.4214 30.697 89.7867 29.8732 90.4127 29.2709C91.0386 28.6686 91.8754 28.3356 92.7436 28.3435C93.0343 28.3501 93.3225 28.3993 93.599 28.4896V26.6552C93.599 25.7989 93.5342 25.7624 92.5977 25.6974V25.385C93.2855 25.2941 93.9639 25.142 94.6247 24.9304V32.6818C94.6247 33.3596 94.718 33.4245 95.1964 33.4732L95.6018 33.5138L95.6423 33.8384ZM93.6153 29.4879C93.4614 29.2785 93.2597 29.1091 93.0268 28.994C92.794 28.8789 92.537 28.8214 92.2774 28.8264C91.6814 28.8264 90.5909 29.3337 90.5909 31.2168C90.5909 32.7589 91.5395 33.5138 92.3706 33.5138C92.8213 33.4989 93.2561 33.3443 93.6153 33.0714V29.4879Z" fill="white"/>
<path d="M100.908 33.0713C100.098 34.0981 99.1976 34.3335 98.7922 34.3335C97.1989 34.3335 96.2624 33.0348 96.2624 31.5657C96.2529 30.7268 96.5598 29.9153 97.1219 29.293C97.3561 29.0108 97.6465 28.7806 97.9746 28.6171C98.3027 28.4535 98.6612 28.3603 99.0273 28.3434C99.5418 28.3638 100.029 28.5795 100.391 28.9465C100.752 29.3136 100.96 29.8046 100.973 30.3198C100.973 30.5795 100.908 30.681 100.673 30.7256C100.438 30.7703 98.8327 30.8961 97.2881 30.9488C97.2881 32.7142 98.3138 33.4406 99.2219 33.4406C99.7828 33.4265 100.315 33.19 100.702 32.7832L100.908 33.0713ZM97.353 30.4212C98.0827 30.4212 98.7922 30.4212 99.5463 30.3847C99.7814 30.3847 99.8584 30.3076 99.8584 30.125C99.8729 29.9637 99.8543 29.8011 99.804 29.6472C99.7536 29.4933 99.6725 29.3513 99.5655 29.2298C99.4585 29.1083 99.328 29.0099 99.1818 28.9405C99.0356 28.8711 98.8768 28.8323 98.7152 28.8263C98.1192 28.8263 97.5476 29.3701 97.353 30.4212Z" fill="white"/>
<path d="M117.891 34.1749V33.8137C118.941 33.7082 118.994 33.6433 118.982 32.2675L118.942 26.9673H118.893L115.727 34.0856H115.467L112.56 27.15H112.536L112.341 30.8512C112.289 31.9144 112.289 32.4745 112.301 33.0061C112.325 33.6311 112.637 33.7204 113.493 33.8178V34.179H110.472V33.8178C111.222 33.7245 111.482 33.5824 111.575 33.0386C111.64 32.5841 111.717 32.0118 111.822 30.6604L112.001 27.9576C112.118 26.2693 112.054 26.2206 110.874 26.1029V25.7377H113.002L115.958 32.231L118.958 25.7377H121.159V26.1029C120.02 26.2084 119.943 26.2328 119.967 27.568L120.097 32.2716C120.137 33.6473 120.174 33.7123 121.313 33.8178V34.179L117.891 34.1749Z" fill="white"/>
<path d="M127.492 31.241C127.492 33.3311 125.963 34.3335 124.678 34.3335C124.302 34.3368 123.929 34.2645 123.581 34.1209C123.233 33.9773 122.917 33.7652 122.652 33.4973C122.388 33.2294 122.18 32.9111 122.04 32.5611C121.901 32.2112 121.833 31.8369 121.84 31.4602C121.819 31.0684 121.877 30.6764 122.009 30.3069C122.14 29.9375 122.344 29.5979 122.608 29.3079C122.872 29.018 123.191 28.7834 123.547 28.6178C123.902 28.4522 124.286 28.359 124.678 28.3434C125.054 28.3432 125.427 28.4187 125.774 28.5653C126.121 28.7119 126.434 28.9266 126.697 29.1968C126.959 29.467 127.165 29.7871 127.301 30.1383C127.438 30.4894 127.503 30.8644 127.492 31.241ZM122.955 26.5658C122.954 26.4816 122.97 26.398 123.001 26.3198C123.032 26.2416 123.078 26.1703 123.137 26.11C123.196 26.0497 123.266 26.0016 123.343 25.9684C123.42 25.9352 123.503 25.9176 123.588 25.9165C123.756 25.9165 123.918 25.9836 124.038 26.1031C124.157 26.2226 124.224 26.3847 124.224 26.5537C124.224 26.7226 124.157 26.8847 124.038 27.0042C123.918 27.1237 123.756 27.1908 123.588 27.1908C123.422 27.1888 123.263 27.1225 123.145 27.006C123.027 26.8894 122.959 26.7317 122.955 26.5658ZM123.044 31.03C123.044 32.6533 123.758 33.8708 124.82 33.8708C125.631 33.8708 126.288 33.2742 126.288 31.4926C126.288 29.9748 125.679 28.7411 124.548 28.7411C123.746 28.7736 123.044 29.5771 123.044 31.0462V31.03ZM125.144 26.5658C125.146 26.444 125.184 26.3254 125.252 26.2249C125.321 26.1245 125.418 26.0467 125.531 26.0014C125.644 25.9561 125.768 25.9452 125.887 25.9703C126.006 25.9953 126.115 26.0551 126.2 26.1421C126.286 26.2291 126.343 26.3394 126.366 26.4591C126.389 26.5788 126.375 26.7025 126.328 26.8147C126.28 26.9268 126.201 27.0224 126.099 27.0894C125.997 27.1563 125.878 27.1916 125.756 27.1908C125.594 27.1856 125.439 27.1177 125.325 27.0013C125.211 26.8849 125.146 26.7289 125.144 26.5658Z" fill="white"/>
<path d="M130.816 34.1623C130.649 34.2581 130.464 34.3163 130.273 34.3327C129.462 34.3327 129 33.8132 129 32.7865V29.0082H128.104L128.051 28.8783L128.404 28.5009H129V27.5513L129.843 26.6949L130.025 26.7193V28.5009H131.489C131.543 28.5793 131.565 28.6755 131.551 28.7699C131.537 28.8642 131.487 28.9495 131.412 29.0082H130.025V32.3441C130.025 33.3952 130.431 33.59 130.775 33.59C131.059 33.5787 131.336 33.5038 131.586 33.3709L131.704 33.7077L130.816 34.1623Z" fill="white"/>
<path d="M136.836 33.0713C136.025 34.0981 135.121 34.3335 134.72 34.3335C133.127 34.3335 132.19 33.0348 132.19 31.5657C132.18 30.7268 132.487 29.9153 133.05 29.293C133.284 29.0108 133.574 28.7806 133.902 28.6171C134.23 28.4535 134.589 28.3603 134.955 28.3434C135.469 28.3638 135.957 28.5795 136.318 28.9465C136.68 29.3136 136.888 29.8046 136.901 30.3198C136.901 30.5795 136.836 30.681 136.601 30.7256C136.366 30.7703 134.76 30.8961 133.216 30.9488C133.216 32.7142 134.241 33.4406 135.15 33.4406C135.709 33.4277 136.241 33.1944 136.629 32.7913L136.836 33.0713ZM133.281 30.4212C134.006 30.4212 134.72 30.4212 135.474 30.3847C135.705 30.3847 135.786 30.3076 135.786 30.125C135.8 29.9637 135.782 29.8011 135.732 29.6472C135.681 29.4933 135.6 29.3513 135.493 29.2298C135.386 29.1083 135.256 29.0099 135.109 28.9405C134.963 28.8711 134.804 28.8323 134.643 28.8263C134.047 28.8263 133.475 29.3701 133.281 30.4212Z" fill="white"/>
<path d="M141.312 34.1747V33.8379C142.078 33.7608 142.167 33.6553 142.167 32.7584V30.5912C142.167 29.6943 141.855 29.1099 140.988 29.1099C140.454 29.1607 139.954 29.3944 139.573 29.7715V32.8233C139.573 33.708 139.65 33.7608 140.416 33.8379V34.1747H137.594V33.8379C138.474 33.7486 138.539 33.6837 138.539 32.8233V30.1367C138.539 29.325 138.462 29.2682 137.761 29.1384V28.838C138.381 28.734 138.987 28.5555 139.565 28.3064V29.3453C139.824 29.1505 140.112 28.9395 140.436 28.7325C140.747 28.4945 141.12 28.3534 141.511 28.3267C142.536 28.3267 143.185 29.041 143.185 30.3031V32.8071C143.185 33.6918 143.25 33.7446 143.996 33.8217V34.1585L141.312 34.1747Z" fill="white"/>
<path d="M162.613 26.1011C161.551 26.1904 161.445 26.2553 161.445 27.3186V32.5822C161.445 33.6699 161.551 33.7348 162.601 33.7997V34.1609H159.126V33.7997C160.229 33.7186 160.342 33.6536 160.342 32.5822V29.9849H155.919V32.5822C155.919 33.6577 156.025 33.7348 157.087 33.7997V34.1609H153.677V33.7997C154.715 33.7186 154.817 33.6536 154.817 32.5822V27.3348C154.817 26.2431 154.715 26.1904 153.649 26.1173V25.7521H157.01V26.1173C156.025 26.2066 155.919 26.2715 155.919 27.3348V29.437H160.346V27.3348C160.346 26.2553 160.241 26.1904 159.228 26.1173V25.7521H162.613V26.1011Z" fill="white"/>
<path d="M163.306 34.1758V33.839C164.117 33.7619 164.214 33.6848 164.214 32.8001V30.1256C164.214 29.314 164.173 29.2693 163.403 29.1395V28.827C164.034 28.7308 164.652 28.5605 165.244 28.3197V32.7838C165.244 33.6686 165.337 33.7457 166.168 33.8228V34.1596L163.306 34.1758ZM163.991 26.5543C163.99 26.4666 164.006 26.3795 164.039 26.2981C164.072 26.2166 164.12 26.1425 164.181 26.0799C164.243 26.0173 164.316 25.9674 164.397 25.9332C164.478 25.899 164.564 25.8812 164.652 25.8806C164.739 25.88 164.826 25.8972 164.907 25.9311C164.987 25.9651 165.06 26.0151 165.121 26.0781C165.181 26.1411 165.229 26.2158 165.26 26.2977C165.29 26.3796 165.304 26.4669 165.301 26.5543C165.299 26.7294 165.23 26.8971 165.106 27.0209C164.982 27.1447 164.815 27.2148 164.64 27.2158C164.468 27.2077 164.306 27.135 164.186 27.0124C164.066 26.8897 163.996 26.7261 163.991 26.5543Z" fill="white"/>
<path d="M170.141 30.0329C169.894 29.2699 169.44 28.7504 168.804 28.7504C168.689 28.7508 168.575 28.7746 168.47 28.8202C168.365 28.8658 168.27 28.9324 168.191 29.0159C168.112 29.0994 168.051 29.1981 168.011 29.3059C167.972 29.4138 167.954 29.5285 167.96 29.6433C167.96 30.2277 168.479 30.528 169.063 30.7755C170.036 31.1814 170.685 31.644 170.685 32.5409C170.685 33.7219 169.582 34.3347 168.544 34.3347C168.013 34.3432 167.493 34.1889 167.052 33.8923C166.916 33.3922 166.845 32.8766 166.841 32.3583L167.182 32.2934C167.413 33.1497 167.993 33.9167 168.775 33.9167C168.896 33.9188 169.015 33.8969 169.127 33.8521C169.239 33.8074 169.341 33.7407 169.426 33.656C169.512 33.5713 169.58 33.4703 169.626 33.359C169.672 33.2477 169.696 33.1282 169.695 33.0076C169.695 32.4354 169.322 32.1229 168.674 31.8266C167.895 31.4614 167.052 31.015 167.052 30.0329C167.052 29.1238 167.831 28.3568 169.022 28.3568C169.419 28.3537 169.811 28.4295 170.178 28.58C170.306 29.0351 170.401 29.499 170.462 29.9679L170.141 30.0329Z" fill="white"/>
<path d="M174.009 34.1623C173.841 34.2583 173.654 34.3165 173.461 34.3327C172.65 34.3327 172.192 33.8132 172.192 32.7865V29.0082H171.296L171.244 28.8783L171.596 28.5009H172.192V27.5513L173.036 26.6949L173.218 26.7193V28.5009H174.682C174.736 28.5793 174.758 28.6755 174.744 28.7699C174.73 28.8642 174.68 28.9495 174.605 29.0082H173.218V32.3441C173.218 33.3952 173.644 33.59 173.968 33.59C174.251 33.5787 174.528 33.5038 174.779 33.3709L174.892 33.7077L174.009 34.1623Z" fill="white"/>
<path d="M181.039 31.241C181.039 33.3311 179.51 34.3335 178.225 34.3335C177.848 34.3374 177.475 34.2655 177.127 34.122C176.779 33.9786 176.463 33.7666 176.198 33.4985C175.933 33.2305 175.725 32.912 175.586 32.5618C175.446 32.2116 175.379 31.837 175.387 31.4602C175.366 31.0684 175.424 30.6764 175.555 30.3069C175.687 29.9375 175.891 29.5979 176.155 29.3079C176.419 29.018 176.738 28.7834 177.093 28.6178C177.449 28.4522 177.833 28.359 178.225 28.3434C178.601 28.3432 178.974 28.4187 179.321 28.5653C179.667 28.7119 179.981 28.9266 180.244 29.1968C180.506 29.467 180.712 29.7871 180.848 30.1383C180.985 30.4894 181.049 30.8644 181.039 31.241ZM176.579 31.0462C176.579 32.6696 177.293 33.8871 178.355 33.8871C179.166 33.8871 179.822 33.2905 179.822 31.5089C179.822 29.9911 179.21 28.7573 178.083 28.7573C177.293 28.7736 176.591 29.5771 176.591 31.0462H176.579Z" fill="white"/>
<path d="M183.739 29.7228C184.144 29.0734 184.687 28.3429 185.307 28.3429C185.47 28.3204 185.634 28.3583 185.771 28.4493C185.907 28.5402 186.005 28.6781 186.046 28.8366C186.088 28.9951 186.07 29.1634 185.996 29.3095C185.921 29.4556 185.796 29.5694 185.644 29.6294C185.591 29.6623 185.528 29.6777 185.466 29.6733C185.403 29.6689 185.344 29.6451 185.295 29.6051C185.231 29.5217 185.149 29.4539 185.055 29.4068C184.961 29.3597 184.857 29.3345 184.752 29.3332C184.412 29.3332 183.998 29.739 183.714 30.4492V32.8233C183.714 33.6837 183.779 33.7608 184.776 33.8379V34.1747H181.784V33.8379C182.595 33.7608 182.68 33.6837 182.68 32.8233V30.1367C182.68 29.2804 182.616 29.2276 181.87 29.1221V28.838C182.499 28.7394 183.114 28.5607 183.698 28.3064V29.7228H183.739Z" fill="white"/>
<path d="M186.67 34.1758V33.839C187.481 33.7619 187.578 33.6848 187.578 32.8001V30.1256C187.578 29.314 187.542 29.2693 186.767 29.1395V28.827C187.398 28.7303 188.016 28.56 188.608 28.3197V32.7838C188.608 33.6686 188.701 33.7457 189.528 33.8228V34.1596L186.67 34.1758ZM187.359 26.5543C187.358 26.4666 187.374 26.3795 187.407 26.2981C187.44 26.2166 187.488 26.1425 187.55 26.0799C187.611 26.0173 187.684 25.9674 187.765 25.9332C187.846 25.899 187.932 25.8812 188.02 25.8806C188.107 25.88 188.194 25.8972 188.275 25.9311C188.355 25.9651 188.428 26.0151 188.489 26.0781C188.549 26.1411 188.597 26.2158 188.628 26.2977C188.658 26.3796 188.672 26.4669 188.669 26.5543C188.668 26.7294 188.598 26.8971 188.474 27.0209C188.35 27.1447 188.183 27.2148 188.008 27.2158C187.836 27.2077 187.674 27.135 187.554 27.0124C187.434 26.8897 187.364 26.7261 187.359 26.5543Z" fill="white"/>
<path d="M194.287 34.3334C194.062 34.3173 193.848 34.2307 193.675 34.0859C193.527 33.9188 193.421 33.7183 193.367 33.5015C192.848 33.8505 192.224 34.3131 191.835 34.3131C191.628 34.3115 191.424 34.2692 191.234 34.1885C191.044 34.1079 190.872 33.9905 190.727 33.8431C190.583 33.6957 190.469 33.5212 190.391 33.3295C190.314 33.1379 190.276 32.9329 190.278 32.7263C190.278 32.0892 190.614 31.6874 191.328 31.4398C192.035 31.2407 192.715 30.9572 193.355 30.5957V30.3644C193.355 29.4269 192.913 28.8953 192.264 28.8953C192.154 28.892 192.044 28.9136 191.943 28.9586C191.842 29.0036 191.752 29.0707 191.681 29.155C191.477 29.4025 191.337 29.6967 191.275 30.0113C191.261 30.0987 191.215 30.1779 191.146 30.2334C191.077 30.2889 190.99 30.3167 190.902 30.3116C190.757 30.2985 190.621 30.2356 190.517 30.1335C190.412 30.0315 190.347 29.8966 190.33 29.7516C190.33 29.5568 190.497 29.4147 190.736 29.2321C191.323 28.8122 191.983 28.5041 192.682 28.323C193.067 28.316 193.443 28.4405 193.748 28.6761C193.961 28.8765 194.125 29.1238 194.227 29.3985C194.328 29.6732 194.364 29.9678 194.332 30.2589V32.6736C194.332 33.258 194.563 33.4528 194.782 33.4528C194.948 33.4454 195.11 33.3966 195.252 33.3107L195.382 33.6476L194.287 34.3334ZM193.339 31.0583C193.067 31.2004 192.443 31.4642 192.171 31.6062C191.664 31.8375 191.381 32.0851 191.381 32.5518C191.373 32.6785 191.392 32.8054 191.434 32.9249C191.477 33.0444 191.543 33.1541 191.629 33.2475C191.715 33.341 191.819 33.4163 191.934 33.469C192.049 33.5216 192.174 33.5506 192.301 33.5542C192.687 33.5087 193.05 33.3442 193.339 33.0835V31.0583Z" fill="white"/>
<path d="M1.03091 12.2783C2.96879 6.69409 7.45267 3.35003 12.2811 0.691832C13.5987 -0.0305493 15.6947 -0.119833 17.1461 0.371225C20.6286 1.49538 23.9408 3.13494 27.3423 4.51072C30.7437 5.88649 33.0181 4.67711 31.9599 6.05694C29.1504 9.70943 25.376 10.8376 21.1881 8.92211C19.2705 8.04552 17.438 6.97412 15.5123 6.16245C12.3338 4.82727 9.0946 4.98148 6.23643 7.41242C3.05799 10.1193 1.77688 13.6054 2.83501 17.7287C4.12423 22.7569 7.58646 25.8656 12.1879 27.8461C17.661 30.1999 23.207 29.7332 28.6558 27.8461C31.3234 26.9208 33.2208 24.9281 33.2086 21.9128C33.2086 20.5776 32.8032 18.5688 31.9194 18.0818C30.8248 17.4852 28.8707 17.7814 27.5896 18.3577C25.6152 19.2384 20.9529 24.0394 15.6866 23.3495C12.4433 22.9193 9.68245 19.3398 9.84461 18.1386C9.97029 17.2052 10.027 18.1386 14.7339 17.473C18.2732 16.9698 20.8638 14.3278 22.7935 13.1428C26.4422 10.8985 29.5558 10.9959 32.2762 14.2832C37.3114 20.3706 34.0316 29.161 28.672 33.0489C19.4367 39.7491 5.26749 36.2955 1.61877 24.6075C1.4566 24.0881 -0.663715 18.1345 1.03091 12.2783Z" fill="white"/>
</svg>
