<svg width="270" height="134" viewBox="0 0 270 134" fill="none" xmlns="http://www.w3.org/2000/svg">
<path d="M107.643 20.3901C110.778 11.365 118.032 5.96044 125.844 1.66433C127.975 0.496842 131.366 0.352545 133.714 1.14618C139.349 2.963 144.707 5.61281 150.21 7.83629C155.713 10.0598 159.393 8.10521 157.681 10.3352C153.135 16.2383 147.029 18.0617 140.254 14.9659C137.158 13.5491 134.187 11.8176 131.071 10.5058C125.929 8.34789 120.688 8.59713 116.064 12.5259C110.922 16.9007 108.85 22.5349 110.561 29.1988C112.647 37.3253 118.248 42.3494 125.693 45.5502C134.554 49.3544 143.52 48.6001 152.335 45.5502C156.651 44.0547 159.721 40.8343 159.701 35.961C159.701 33.8031 159.045 30.5565 157.615 29.7694C155.844 28.8052 152.683 29.284 150.61 30.2154C147.423 31.6387 139.873 39.3979 131.353 38.2829C126.106 37.5876 121.639 31.8027 121.902 29.8612C122.105 28.3527 122.197 29.8612 129.812 28.7855C135.538 27.9722 139.729 23.7024 142.851 21.7872C148.754 18.1601 153.791 18.3175 158.192 23.6302C166.339 33.4686 161.032 47.6753 152.362 53.9587C137.42 64.7876 114.497 59.2059 108.594 40.3162C108.331 39.4766 104.901 29.8546 107.643 20.3901Z" fill="white"/>
<path d="M11.8559 99.0908C12.6653 99.1016 13.4731 99.018 14.2631 98.8415C14.9391 98.6887 15.5982 98.469 16.2307 98.1856V94.1912H13.476C13.3571 94.2025 13.2372 94.1884 13.1242 94.1499C13.0111 94.1115 12.9075 94.0496 12.8201 93.9682C12.7474 93.9005 12.69 93.8181 12.6516 93.7265C12.6131 93.635 12.5945 93.5363 12.5971 93.437V91.1741H19.9234V100.002C19.3764 100.385 18.7995 100.723 18.1984 101.013C17.5684 101.322 16.9093 101.568 16.2307 101.747C15.5126 101.946 14.7802 102.088 14.0401 102.173C13.2021 102.274 12.3588 102.322 11.5149 102.318C10.0014 102.334 8.49938 102.054 7.09414 101.491C5.77976 100.967 4.58701 100.178 3.5897 99.1739C2.59239 98.1698 1.81173 96.9718 1.29604 95.6539C0.741008 94.2266 0.467068 92.7054 0.489288 91.1741C0.471753 89.6326 0.745464 88.1016 1.29604 86.6616C1.80399 85.3238 2.59416 84.1111 3.61278 83.1061C4.63141 82.101 5.85459 81.3272 7.19908 80.8372C8.70764 80.2784 10.3064 80.0027 11.915 80.0239C13.5038 79.9872 15.0848 80.2566 16.5718 80.8176C17.8014 81.2938 18.933 81.9919 19.9103 82.8771L18.7231 84.7136C18.6329 84.8821 18.4986 85.023 18.3346 85.1212C18.1705 85.2194 17.9829 85.2712 17.7918 85.2711C17.5274 85.2638 17.2705 85.1819 17.0506 85.035C16.7292 84.8382 16.3947 84.648 16.0536 84.4578C15.6902 84.2599 15.3106 84.0931 14.919 83.9593C14.4666 83.8103 14.0041 83.6941 13.535 83.6117C12.9493 83.5196 12.357 83.4758 11.7641 83.4805C10.7581 83.4635 9.75886 83.6486 8.8257 84.0249C7.97281 84.3688 7.20673 84.8975 6.58254 85.5728C5.94709 86.2795 5.46077 87.1071 5.15269 88.0062C4.81161 89.0268 4.64746 90.0982 4.66733 91.1741C4.64896 92.3137 4.82872 93.4478 5.19861 94.5258C5.51762 95.4484 6.0246 96.2949 6.68749 97.0116C7.32696 97.6871 8.10583 98.2153 8.97 98.5595C9.88875 98.9209 10.8687 99.1013 11.8559 99.0908Z" fill="white"/>
<path d="M42.5911 102.082H39.4297C39.1168 102.093 38.8093 101.999 38.5573 101.813C38.3328 101.647 38.1618 101.419 38.0654 101.157L36.4257 96.71H27.3219L25.6821 101.157C25.5883 101.417 25.4222 101.644 25.2033 101.813C24.9544 102.007 24.6463 102.108 24.331 102.101H21.1499L29.7815 80.2864H33.9398L42.5911 102.082ZM28.3713 93.8437H35.3762L32.7002 86.583C32.5756 86.2616 32.4444 85.8877 32.3001 85.4483C32.1558 85.0088 32.0049 84.5366 31.8607 84.025C31.7229 84.5366 31.5852 85.0154 31.4474 85.4548C31.3097 85.8943 31.1785 86.2812 31.0408 86.6158L28.3713 93.8437Z" fill="white"/>
<path d="M57.6504 80.2666V83.5985H51.039V102.082H46.9528V83.5985H40.3086V80.2666H57.6504Z" fill="white"/>
<path d="M78.3242 102.082H74.2052V92.5449H63.9076V102.082H59.7886V80.2666H63.9076V89.6459H74.2052V80.2666H78.3242V102.082Z" fill="white"/>
<path d="M96.1645 80.2666V83.4936H86.4114V89.5409H94.0853V92.663H86.4114V98.8349H96.1514V102.082H82.3055V80.2666H96.1645Z" fill="white"/>
<path d="M101.845 80.2863C101.957 80.3021 102.068 80.333 102.172 80.3782C102.275 80.4302 102.37 80.4964 102.455 80.5749C102.564 80.6803 102.665 80.7943 102.756 80.916L114.287 95.5031C114.247 95.1489 114.221 94.8078 114.208 94.4668C114.195 94.1257 114.208 93.8109 114.208 93.5223V80.2667H117.809V102.082H115.697C115.42 102.089 115.146 102.037 114.89 101.931C114.644 101.798 114.431 101.612 114.267 101.386L102.782 86.8584C102.815 87.1798 102.835 87.5143 102.848 87.816C102.861 88.1177 102.848 88.4194 102.848 88.6818V102.082H99.2472V80.2667H101.392C101.543 80.2653 101.694 80.2719 101.845 80.2863Z" fill="white"/>
<path d="M140.3 102.082H136.181V92.5449H125.883V102.082H121.764V80.2666H125.883V89.6459H136.181V80.2666H140.3V102.082Z" fill="white"/>
<path d="M148.885 102.082H144.786V80.2666H148.892L148.885 102.082Z" fill="white"/>
<path d="M167.224 80.2666V83.4936H157.484V89.5409H165.151V92.663H157.484V98.8349H167.224V102.082H153.365V80.2666H167.224Z" fill="white"/>
<path d="M174.393 98.73H183.189V102.082H170.307V80.2666H174.393V98.73Z" fill="white"/>
<path d="M197.067 94.0338C197.218 94.3749 197.362 94.7291 197.5 95.0767C197.644 94.7159 197.789 94.3618 197.94 94.0076C198.09 93.6534 198.254 93.3517 198.431 92.9975L204.931 80.9159C204.996 80.7841 205.08 80.6625 205.181 80.5552C205.26 80.4679 205.359 80.4005 205.469 80.3584C205.585 80.3146 205.707 80.2881 205.83 80.2797H206.302H209.385V102.095H205.784V87.9865C205.784 87.7307 205.784 87.4421 205.784 87.1273C205.784 86.8124 205.823 86.4714 205.856 86.1762L199.225 98.5464C199.09 98.8134 198.886 99.0397 198.635 99.2023C198.38 99.3633 198.083 99.4455 197.782 99.4384H197.257C196.956 99.4455 196.66 99.3633 196.405 99.2023C196.153 99.0397 195.95 98.8134 195.814 98.5464L189.078 86.1303C189.118 86.4648 189.151 86.7862 189.164 87.1076C189.177 87.429 189.164 87.7176 189.164 87.9865V102.082H185.563V80.2666H188.646H189.118C189.239 80.2742 189.359 80.3008 189.472 80.3453C189.583 80.3889 189.684 80.4561 189.767 80.5421C189.872 80.6487 189.96 80.7702 190.03 80.9028L196.588 93.0172C196.767 93.3469 196.927 93.6863 197.067 94.0338Z" fill="white"/>
<path d="M225.14 84.2347C225.053 84.4211 224.92 84.5817 224.753 84.7004C224.594 84.7949 224.412 84.8427 224.228 84.8382C223.992 84.8201 223.765 84.7385 223.572 84.6021C223.316 84.4446 223.014 84.2741 222.673 84.0839C222.287 83.8739 221.883 83.6983 221.467 83.5592C220.938 83.397 220.386 83.3196 219.833 83.3296C219.332 83.3189 218.831 83.3875 218.351 83.5329C217.963 83.6484 217.602 83.8402 217.288 84.097C217.004 84.3297 216.78 84.6264 216.633 84.9628C216.491 85.3152 216.42 85.6916 216.423 86.0713C216.4 86.547 216.554 87.0142 216.856 87.383C217.176 87.7481 217.566 88.0448 218.003 88.2554C218.526 88.5201 219.07 88.7395 219.63 88.9113C220.233 89.1015 220.857 89.3048 221.486 89.5213C222.12 89.7386 222.742 89.9904 223.349 90.2755C223.943 90.5539 224.492 90.921 224.976 91.3643C225.465 91.8149 225.856 92.3621 226.123 92.9713C226.431 93.701 226.579 94.4883 226.556 95.28C226.563 96.2268 226.39 97.1662 226.045 98.0479C225.717 98.8949 225.209 99.6603 224.556 100.291C223.872 100.952 223.059 101.466 222.168 101.8C221.122 102.178 220.014 102.356 218.902 102.324C218.208 102.326 217.516 102.258 216.836 102.121C216.163 101.991 215.504 101.798 214.868 101.544C214.261 101.294 213.678 100.991 213.124 100.639C212.599 100.299 212.113 99.903 211.674 99.458L212.855 97.4904C212.966 97.3471 213.104 97.2268 213.261 97.1362C213.419 97.0383 213.601 96.9882 213.786 96.9919C214.084 97.0101 214.37 97.1175 214.606 97.3002C214.899 97.5057 215.246 97.7243 215.649 97.956C216.096 98.2207 216.568 98.4404 217.059 98.6119C217.69 98.835 218.357 98.9395 219.027 98.9202C219.997 98.9839 220.957 98.6925 221.729 98.1003C222.055 97.8036 222.31 97.4373 222.476 97.0287C222.642 96.62 222.714 96.1793 222.686 95.7391C222.709 95.2353 222.556 94.7394 222.254 94.3355C221.939 93.9543 221.548 93.6437 221.106 93.4238C220.588 93.1491 220.043 92.9293 219.479 92.7679C218.869 92.5974 218.253 92.4072 217.63 92.2039C216.996 92.004 216.376 91.763 215.773 91.4824C215.175 91.2064 214.625 90.8342 214.147 90.3805C213.652 89.8989 213.261 89.3207 212.999 88.6817C212.688 87.8817 212.541 87.0275 212.566 86.1696C212.569 85.3587 212.737 84.5568 213.06 83.8127C213.382 83.0685 213.852 82.3977 214.442 81.8407C215.096 81.2324 215.862 80.7578 216.698 80.4437C217.674 80.0743 218.711 79.894 219.755 79.9124C220.977 79.9007 222.191 80.105 223.342 80.5158C224.381 80.9197 225.326 81.5338 226.117 82.3195L225.14 84.2347Z" fill="white"/>
<path d="M233.437 89.4098H234.394C234.719 89.4214 235.043 89.3656 235.345 89.2458C235.605 89.139 235.831 88.9646 236.001 88.7408L242.062 81.1259C242.276 80.85 242.549 80.6258 242.862 80.47C243.197 80.3368 243.557 80.2742 243.918 80.2863H247.44L240.041 89.3508C239.842 89.6044 239.623 89.8413 239.385 90.0592C239.189 90.2438 238.969 90.4005 238.73 90.5248C239.058 90.6451 239.364 90.8203 239.635 91.043C239.932 91.2886 240.194 91.5732 240.415 91.8891L248.043 102.101H244.429C244.054 102.124 243.68 102.052 243.341 101.891C243.093 101.751 242.887 101.547 242.744 101.301L236.526 93.2402C236.354 93.0042 236.129 92.8111 235.87 92.6762C235.524 92.5476 235.156 92.4896 234.788 92.5056H233.476V102.101H229.39V80.2535H233.476L233.437 89.4098Z" fill="white"/>
<path d="M269.275 102.082H266.126C265.813 102.093 265.506 101.999 265.254 101.813C265.029 101.647 264.858 101.419 264.762 101.157L263.122 96.71H254.005L252.366 101.157C252.272 101.417 252.106 101.644 251.887 101.813C251.638 102.007 251.33 102.11 251.014 102.101H247.84L256.465 80.2864H260.643L269.275 102.082ZM255.055 93.8437H262.06L259.384 86.583C259.266 86.2616 259.128 85.8877 258.984 85.4483C258.839 85.0088 258.688 84.5366 258.551 84.025C258.406 84.5366 258.269 85.0154 258.131 85.4548C257.993 85.8943 257.862 86.2812 257.731 86.6158L255.055 93.8437Z" fill="white"/>
<path d="M105.236 125.313C105.982 125.313 106.587 124.708 106.587 123.962C106.587 123.216 105.982 122.611 105.236 122.611C104.489 122.611 103.884 123.216 103.884 123.962C103.884 124.708 104.489 125.313 105.236 125.313Z" fill="white"/>
<path d="M175.633 125.313C176.379 125.313 176.984 124.708 176.984 123.962C176.984 123.216 176.379 122.611 175.633 122.611C174.886 122.611 174.281 123.216 174.281 123.962C174.281 124.708 174.886 125.313 175.633 125.313Z" fill="white"/>
<path d="M25.9182 118.394C25.5444 117.049 24.9934 115.6 23.17 115.6C22.8597 115.579 22.5484 115.624 22.2568 115.732C21.9652 115.84 21.6997 116.009 21.4779 116.227C21.2561 116.445 21.083 116.708 20.9699 116.998C20.8569 117.287 20.8064 117.598 20.8219 117.908C20.8219 119.443 21.8255 120.158 23.4849 121.017C25.1443 121.877 27.1185 122.841 27.1185 125.189C27.1185 127.393 25.2492 129.124 22.4551 129.124C21.7591 129.12 21.0675 129.014 20.4022 128.809C20.0485 128.689 19.7042 128.542 19.3724 128.37C19.112 127.29 18.9236 126.195 18.8083 125.09L19.4118 124.946C19.7528 126.225 20.7236 128.344 22.8552 128.344C23.1908 128.376 23.5296 128.336 23.8481 128.226C24.1667 128.115 24.4575 127.937 24.7006 127.703C24.9436 127.469 25.1332 127.186 25.2562 126.872C25.3792 126.558 25.4328 126.221 25.4132 125.884C25.4132 124.33 24.2588 123.595 22.6847 122.755C21.3401 122.041 19.2216 120.991 19.2216 118.623C19.2216 116.61 20.8416 114.885 23.5439 114.885C24.438 114.912 25.3227 115.076 26.1675 115.37C26.2462 116.124 26.3511 116.944 26.5217 118.269L25.9182 118.394Z" fill="white"/>
<path d="M35.6583 128.888C34.6941 127.812 33.3692 126.133 32.2148 124.73C31.9459 124.375 31.7557 124.271 31.559 124.271C31.4454 124.276 31.3329 124.295 31.2244 124.33V126.658C31.2244 128.048 31.4147 128.173 32.7592 128.298V128.842H28.0368V128.298C29.4404 128.173 29.565 128.003 29.565 126.658V116.754C29.565 115.37 29.4601 115.265 28.1811 115.14V114.655C29.2113 114.513 30.2244 114.267 31.2048 113.921V123.805C31.7114 123.712 32.1729 123.454 32.5166 123.07C33.0573 122.491 33.555 121.873 34.0054 121.221C34.4252 120.565 34.3596 120.407 33.3495 120.302V119.751L37.626 119.568V120.092C36.183 120.342 35.737 120.552 34.9237 121.326C34.399 121.85 34.0186 122.27 33.12 123.293C33.5398 123.949 35.6583 126.402 36.3667 127.137C36.6205 127.477 36.9459 127.757 37.3199 127.958C37.6939 128.158 38.1073 128.274 38.5311 128.298V128.842L35.6583 128.888Z" fill="white"/>
<path d="M45.4836 129.098C45.1196 129.072 44.7731 128.932 44.4932 128.698C44.2532 128.428 44.0821 128.104 43.9947 127.753C43.1551 128.317 42.1451 129.065 41.5154 129.065C41.1815 129.063 40.8514 128.994 40.544 128.864C40.2366 128.733 39.9579 128.544 39.724 128.305C39.49 128.067 39.3053 127.785 39.1805 127.475C39.0558 127.166 38.9933 126.834 38.9968 126.501C38.9968 125.471 39.5412 124.821 40.6955 124.421C41.8393 124.099 42.9404 123.641 43.975 123.057V122.683C43.975 121.168 43.2601 120.309 42.2172 120.309C42.0384 120.304 41.8607 120.339 41.6972 120.411C41.5337 120.484 41.3886 120.592 41.2727 120.729C40.9367 121.127 40.7106 121.606 40.6168 122.119C40.5914 122.26 40.5153 122.386 40.4028 122.475C40.2904 122.563 40.1495 122.607 40.0069 122.598C39.772 122.577 39.5517 122.475 39.3832 122.31C39.2147 122.145 39.1083 121.927 39.082 121.693C39.082 121.385 39.3575 121.148 39.7379 120.86C40.6864 120.176 41.7541 119.676 42.8862 119.384C43.5094 119.373 44.1178 119.574 44.6112 119.955C44.9563 120.279 45.2213 120.678 45.3853 121.122C45.5492 121.566 45.6075 122.042 45.5557 122.513V126.415C45.5557 127.36 45.9296 127.675 46.2903 127.675C46.5569 127.662 46.8161 127.583 47.0446 127.445L47.2545 127.989L45.4836 129.098ZM43.9488 123.805C43.5093 124.034 42.4993 124.461 42.0598 124.69C41.2465 125.064 40.748 125.464 40.748 126.219C40.7365 126.423 40.7662 126.628 40.8353 126.821C40.9044 127.015 41.0116 127.192 41.1504 127.343C41.2892 127.494 41.4568 127.616 41.6434 127.701C41.8301 127.786 42.0319 127.833 42.2369 127.839C42.8626 127.768 43.4501 127.501 43.916 127.078L43.9488 123.805Z" fill="white"/>
<path d="M52.4754 119.732C52.7886 119.552 53.1383 119.444 53.4986 119.417C55.8336 119.417 57.2175 121.306 57.2175 123.385C57.2175 126.553 54.7186 128.593 51.9704 129.098C51.4664 129.071 50.9732 128.941 50.5209 128.717V131.466C50.5209 133.059 50.6717 133.164 52.3049 133.315V133.879H47.3529V133.315C48.6647 133.191 48.8877 133.06 48.8877 131.676V122.191C48.8877 120.827 48.8024 120.788 47.4972 120.617V120.112C48.54 119.915 49.5598 119.612 50.5405 119.207V120.866L52.4754 119.732ZM50.5078 127.248C51.0357 127.762 51.7392 128.055 52.4754 128.068C54.2398 128.068 55.4138 126.553 55.4138 124.185C55.4138 121.936 54.1021 120.676 52.6001 120.676C51.8315 120.77 51.1044 121.076 50.5012 121.562L50.5078 127.248Z" fill="white"/>
<path d="M65.4228 129.098C65.0606 129.073 64.7159 128.933 64.4389 128.698C64.1946 128.43 64.021 128.105 63.9339 127.753C63.0944 128.317 62.0843 129.065 61.4546 129.065C61.1207 129.063 60.7906 128.994 60.4832 128.864C60.1758 128.733 59.8971 128.544 59.6632 128.305C59.4292 128.067 59.2445 127.785 59.1198 127.475C58.995 127.166 58.9325 126.834 58.936 126.501C58.936 125.471 59.4804 124.821 60.6348 124.421C61.7786 124.099 62.8796 123.641 63.9142 123.057V122.683C63.9142 121.168 63.2059 120.309 62.1564 120.309C61.9776 120.304 61.7999 120.339 61.6364 120.411C61.4729 120.484 61.3279 120.592 61.2119 120.729C60.8759 121.127 60.6498 121.606 60.556 122.119C60.5306 122.26 60.4545 122.386 60.342 122.475C60.2296 122.563 60.0887 122.607 59.9461 122.598C59.7112 122.577 59.4909 122.475 59.3224 122.31C59.1539 122.145 59.0475 121.927 59.0213 121.693C59.0213 121.385 59.2967 121.148 59.6771 120.86C60.6256 120.176 61.6933 119.676 62.8254 119.384C63.4486 119.373 64.057 119.574 64.5504 119.955C64.8955 120.279 65.1605 120.678 65.3245 121.122C65.4884 121.566 65.5468 122.042 65.4949 122.513V126.415C65.4949 127.36 65.8688 127.675 66.2295 127.675C66.4961 127.662 66.7553 127.583 66.9838 127.445L67.1937 127.989L65.4228 129.098ZM63.888 123.805C63.4485 124.034 62.445 124.461 61.999 124.69C61.1857 125.064 60.6872 125.464 60.6872 126.219C60.6757 126.423 60.7054 126.628 60.7745 126.821C60.8436 127.015 60.9508 127.192 61.0896 127.343C61.2284 127.494 61.396 127.616 61.5826 127.701C61.7693 127.786 61.9711 127.833 62.1761 127.839C62.8018 127.768 63.3893 127.501 63.8552 127.078L63.888 123.805Z" fill="white"/>
<path d="M73.733 128.842V128.298C74.9726 128.173 75.1234 128.003 75.1234 126.553V123.051C75.1234 121.601 74.6184 120.657 73.2148 120.657C72.3514 120.739 71.5428 121.116 70.9257 121.726V126.658C70.9257 128.088 71.0503 128.173 72.29 128.298V128.842H67.6987V128.298C69.1286 128.153 69.2335 128.049 69.2335 126.658V122.316C69.2335 121.004 69.1089 120.912 67.9742 120.702V120.217C68.9781 120.049 69.958 119.76 70.8929 119.358V121.037C71.3127 120.722 71.7718 120.381 72.2965 120.047C72.8024 119.664 73.4085 119.436 74.0412 119.391C75.6941 119.391 76.7435 120.545 76.7435 122.585V126.632C76.7435 128.062 76.8485 128.147 78.0553 128.272V128.816L73.733 128.842Z" fill="white"/>
<path d="M89.376 128.298C88.2632 128.476 87.1666 128.744 86.0965 129.098V127.734L84.8176 128.488C84.3263 128.817 83.7646 129.026 83.1778 129.098C81.4987 129.098 79.2949 127.563 79.2949 124.625C79.3377 123.221 79.9288 121.889 80.9415 120.916C81.9542 119.942 83.308 119.404 84.7126 119.417C85.183 119.428 85.6492 119.507 86.0965 119.653V116.688C86.0965 115.304 85.9916 115.245 84.4765 115.141V114.635C85.5891 114.487 86.6865 114.242 87.756 113.901V126.428C87.756 127.524 87.9002 127.629 88.6742 127.707L89.3301 127.773L89.376 128.298ZM86.0965 121.267C85.8477 120.928 85.5212 120.654 85.1446 120.468C84.7679 120.282 84.3521 120.189 83.9321 120.197C82.9679 120.197 81.2036 121.017 81.2036 124.061C81.2036 126.553 82.7384 127.773 84.0829 127.773C84.812 127.749 85.5156 127.499 86.0965 127.058V121.267Z" fill="white"/>
<path d="M97.896 127.058C96.5843 128.718 95.1282 129.098 94.4788 129.098C91.8946 129.098 90.3861 126.999 90.3861 124.625C90.3714 123.27 90.8652 121.96 91.77 120.952C92.1488 120.496 92.6187 120.124 93.1495 119.859C93.6803 119.595 94.2604 119.444 94.8527 119.417C95.685 119.45 96.4735 119.799 97.0582 120.392C97.6429 120.985 97.98 121.779 98.001 122.611C98.001 123.031 97.896 123.195 97.5222 123.267C97.1483 123.339 94.5379 123.543 92.0389 123.628C92.0389 126.481 93.6983 127.655 95.1675 127.655C96.0748 127.632 96.9359 127.25 97.5615 126.592L97.896 127.058ZM92.1439 122.775C93.3245 122.775 94.4788 122.775 95.6922 122.716C96.0727 122.716 96.1973 122.592 96.1973 122.296C96.2206 122.036 96.1906 121.773 96.1091 121.524C96.0277 121.276 95.8964 121.046 95.7234 120.85C95.5503 120.653 95.3391 120.494 95.1026 120.382C94.8661 120.27 94.6092 120.207 94.3477 120.198C93.3835 120.198 92.4587 121.076 92.1439 122.775Z" fill="white"/>
<path d="M125.372 128.842V128.258C127.07 128.088 127.156 127.983 127.136 125.76L127.07 117.194H126.992L121.869 128.698H121.449L116.747 117.489H116.707L116.392 123.47C116.307 125.189 116.307 126.094 116.327 126.953C116.366 127.963 116.871 128.108 118.255 128.265V128.849H113.369V128.265C114.589 128.114 115.008 127.885 115.153 127.006C115.258 126.271 115.382 125.346 115.553 123.162L115.848 118.8C116.032 116.065 115.927 115.987 114.018 115.796V115.206H117.461L122.243 125.7L127.097 115.206H130.665V115.796C128.815 115.967 128.697 116.006 128.73 118.171L128.94 125.766C129.005 127.99 129.064 128.094 130.907 128.265V128.849L125.372 128.842Z" fill="white"/>
<path d="M140.91 124.1C140.91 127.478 138.43 129.098 136.318 129.098C135.709 129.103 135.106 128.986 134.543 128.754C133.98 128.522 133.469 128.179 133.041 127.746C132.613 127.313 132.276 126.799 132.05 126.233C131.825 125.668 131.715 125.063 131.727 124.454C131.694 123.821 131.786 123.187 131.999 122.59C132.213 121.993 132.543 121.444 132.97 120.976C133.397 120.507 133.913 120.128 134.488 119.86C135.063 119.593 135.685 119.442 136.318 119.417C136.929 119.417 137.534 119.538 138.097 119.775C138.66 120.011 139.17 120.358 139.598 120.794C140.025 121.23 140.362 121.747 140.587 122.315C140.812 122.882 140.922 123.489 140.91 124.1ZM133.564 116.544C133.562 116.407 133.587 116.272 133.638 116.145C133.689 116.018 133.764 115.903 133.86 115.805C133.956 115.708 134.07 115.63 134.196 115.577C134.322 115.523 134.457 115.495 134.593 115.495C134.866 115.495 135.128 115.603 135.321 115.796C135.515 115.989 135.623 116.251 135.623 116.524C135.623 116.797 135.515 117.059 135.321 117.253C135.128 117.446 134.866 117.554 134.593 117.554C134.324 117.553 134.066 117.446 133.874 117.258C133.682 117.069 133.57 116.813 133.564 116.544ZM133.708 123.759C133.708 126.382 134.862 128.35 136.581 128.35C137.892 128.35 138.955 127.386 138.955 124.507C138.955 122.054 137.971 120.06 136.141 120.06C134.843 120.112 133.708 121.417 133.708 123.785V123.759ZM137.105 116.544C137.108 116.347 137.169 116.155 137.28 115.993C137.392 115.831 137.549 115.705 137.731 115.632C137.914 115.559 138.115 115.541 138.307 115.582C138.5 115.622 138.676 115.719 138.814 115.859C138.952 116 139.045 116.178 139.082 116.372C139.118 116.565 139.097 116.765 139.02 116.946C138.943 117.128 138.815 117.282 138.65 117.39C138.486 117.498 138.293 117.555 138.096 117.554C137.832 117.546 137.582 117.436 137.398 117.248C137.213 117.06 137.109 116.808 137.105 116.544Z" fill="white"/>
<path d="M146.281 128.822C146.012 128.977 145.712 129.071 145.402 129.098C144.091 129.098 143.343 128.258 143.343 126.599V120.493H141.893L141.808 120.283L142.379 119.673H143.343V118.138L144.707 116.754L145.002 116.793V119.673H147.37C147.46 119.799 147.497 119.955 147.473 120.108C147.45 120.261 147.368 120.399 147.246 120.493H145.002V125.884C145.002 127.583 145.658 127.898 146.216 127.898C146.674 127.879 147.122 127.758 147.528 127.543L147.718 128.088L146.281 128.822Z" fill="white"/>
<path d="M156.021 127.058C154.71 128.718 153.254 129.098 152.598 129.098C150.02 129.098 148.505 126.999 148.505 124.625C148.489 123.269 148.986 121.957 149.895 120.952C150.274 120.496 150.744 120.124 151.275 119.859C151.806 119.595 152.386 119.444 152.978 119.417C153.81 119.45 154.599 119.799 155.184 120.392C155.768 120.985 156.105 121.779 156.126 122.611C156.126 123.031 156.021 123.195 155.641 123.267C155.261 123.339 152.663 123.543 150.164 123.628C150.164 126.481 151.824 127.655 153.293 127.655C154.198 127.636 155.059 127.258 155.687 126.606L156.021 127.058ZM150.269 122.775C151.443 122.775 152.598 122.775 153.818 122.716C154.198 122.716 154.323 122.592 154.323 122.296C154.346 122.036 154.316 121.773 154.234 121.524C154.153 121.276 154.022 121.046 153.849 120.85C153.676 120.653 153.464 120.494 153.228 120.382C152.991 120.27 152.735 120.207 152.473 120.198C151.509 120.198 150.584 121.076 150.269 122.775Z" fill="white"/>
<path d="M163.262 128.842V128.298C164.502 128.173 164.646 128.003 164.646 126.553V123.051C164.646 121.601 164.141 120.657 162.738 120.657C161.874 120.739 161.066 121.116 160.449 121.726V126.658C160.449 128.088 160.573 128.173 161.813 128.298V128.842H157.248V128.298C158.671 128.153 158.776 128.049 158.776 126.658V122.316C158.776 121.004 158.652 120.912 157.517 120.702V120.217C158.521 120.049 159.501 119.76 160.436 119.358V121.037C160.855 120.722 161.321 120.381 161.846 120.047C162.348 119.662 162.953 119.434 163.584 119.391C165.243 119.391 166.293 120.545 166.293 122.585V126.632C166.293 128.062 166.398 128.147 167.604 128.272V128.816L163.262 128.842Z" fill="white"/>
<path d="M197.73 115.79C196.005 115.934 195.841 116.039 195.841 117.758V126.265C195.841 128.022 196.005 128.127 197.703 128.232V128.816H192.082V128.232C193.866 128.101 194.05 127.996 194.05 126.265V122.067H186.901V126.265C186.901 128.003 187.065 128.127 188.783 128.232V128.816H183.267V128.232C184.946 128.101 185.117 127.996 185.117 126.265V117.784C185.117 116.019 184.946 115.934 183.228 115.816V115.226H188.659V115.816C187.065 115.96 186.901 116.065 186.901 117.784V121.181H194.057V117.784C194.057 116.039 193.886 115.934 192.246 115.816V115.226H197.73V115.79Z" fill="white"/>
<path d="M198.845 128.842V128.298C200.157 128.173 200.314 128.049 200.314 126.619V122.296C200.314 120.985 200.248 120.912 199.002 120.703V120.197C200.023 120.042 201.023 119.767 201.98 119.378V126.592C201.98 128.022 202.131 128.147 203.475 128.272V128.816L198.845 128.842ZM199.953 116.524C199.951 116.383 199.978 116.242 200.031 116.11C200.084 115.979 200.162 115.859 200.261 115.758C200.361 115.657 200.479 115.576 200.61 115.521C200.74 115.465 200.88 115.437 201.022 115.436C201.164 115.435 201.304 115.462 201.434 115.517C201.565 115.572 201.683 115.653 201.781 115.755C201.879 115.857 201.955 115.977 202.005 116.11C202.055 116.242 202.078 116.383 202.072 116.524C202.07 116.807 201.957 117.078 201.757 117.279C201.557 117.479 201.286 117.592 201.003 117.594C200.725 117.58 200.463 117.463 200.268 117.265C200.074 117.067 199.961 116.802 199.953 116.524Z" fill="white"/>
<path d="M209.903 122.152C209.503 120.912 208.768 120.073 207.745 120.073C207.559 120.073 207.375 120.112 207.204 120.186C207.033 120.26 206.879 120.368 206.751 120.504C206.624 120.64 206.525 120.8 206.461 120.975C206.398 121.15 206.37 121.336 206.381 121.522C206.381 122.46 207.22 122.946 208.165 123.346C209.739 124.002 210.789 124.749 210.789 126.199C210.789 128.107 209.004 129.098 207.325 129.098C206.467 129.112 205.624 128.862 204.912 128.383C204.694 127.574 204.582 126.741 204.577 125.904L205.122 125.799C205.495 127.183 206.433 128.422 207.699 128.422C207.894 128.426 208.088 128.39 208.27 128.318C208.451 128.246 208.616 128.138 208.755 128.001C208.894 127.865 209.005 127.701 209.08 127.521C209.156 127.341 209.195 127.148 209.195 126.953C209.195 126.028 208.585 125.523 207.535 125.044C206.276 124.454 204.912 123.733 204.912 122.145C204.912 120.676 206.171 119.437 208.099 119.437C208.74 119.432 209.376 119.554 209.969 119.797C210.179 120.532 210.332 121.282 210.428 122.04L209.903 122.152Z" fill="white"/>
<path d="M216.16 128.822C215.889 128.978 215.587 129.072 215.275 129.098C213.963 129.098 213.222 128.258 213.222 126.599V120.493H211.772L211.687 120.283L212.258 119.673H213.222V118.138L214.586 116.754L214.881 116.793V119.673H217.249C217.337 119.799 217.373 119.955 217.35 120.107C217.327 120.26 217.246 120.398 217.124 120.493H214.881V125.884C214.881 127.583 215.57 127.898 216.095 127.898C216.553 127.879 217.001 127.758 217.406 127.543L217.59 128.088L216.16 128.822Z" fill="white"/>
<path d="M227.534 124.1C227.534 127.478 225.061 129.098 222.982 129.098C222.373 129.103 221.769 128.987 221.206 128.754C220.643 128.522 220.133 128.18 219.704 127.747C219.276 127.314 218.939 126.799 218.714 126.234C218.488 125.668 218.378 125.063 218.39 124.454C218.357 123.821 218.449 123.188 218.663 122.59C218.876 121.993 219.206 121.445 219.633 120.976C220.06 120.507 220.576 120.128 221.151 119.861C221.726 119.593 222.348 119.442 222.982 119.417C223.591 119.417 224.193 119.539 224.754 119.776C225.315 120.013 225.823 120.36 226.248 120.796C226.672 121.233 227.005 121.75 227.225 122.318C227.446 122.885 227.551 123.491 227.534 124.1ZM220.319 123.785C220.319 126.409 221.473 128.377 223.192 128.377C224.503 128.377 225.566 127.412 225.566 124.533C225.566 122.08 224.575 120.086 222.752 120.086C221.473 120.112 220.338 121.417 220.338 123.785H220.319Z" fill="white"/>
<path d="M231.902 121.647C232.558 120.598 233.437 119.417 234.44 119.417C234.703 119.378 234.972 119.437 235.194 119.584C235.416 119.73 235.577 119.953 235.645 120.21C235.713 120.467 235.684 120.741 235.564 120.978C235.443 121.215 235.239 121.4 234.991 121.496C234.904 121.55 234.802 121.575 234.699 121.568C234.597 121.561 234.5 121.522 234.42 121.457C234.317 121.322 234.184 121.212 234.031 121.136C233.879 121.06 233.712 121.02 233.542 121.017C232.997 121.017 232.322 121.673 231.862 122.821V126.658C231.862 128.049 231.967 128.173 233.581 128.298V128.842H228.74V128.298C230.052 128.173 230.19 128.049 230.19 126.658V122.316C230.19 120.932 230.085 120.847 228.878 120.676V120.217C229.897 120.058 230.891 119.769 231.836 119.358V121.647H231.902Z" fill="white"/>
<path d="M236.644 128.842V128.298C237.956 128.173 238.113 128.049 238.113 126.619V122.296C238.113 120.985 238.054 120.912 236.801 120.703V120.197C237.823 120.042 238.822 119.767 239.779 119.378V126.592C239.779 128.022 239.93 128.147 241.268 128.272V128.816L236.644 128.842ZM237.759 116.524C237.757 116.383 237.783 116.242 237.836 116.11C237.889 115.979 237.968 115.859 238.067 115.758C238.166 115.657 238.285 115.576 238.415 115.521C238.546 115.465 238.686 115.437 238.828 115.436C238.969 115.435 239.11 115.462 239.24 115.517C239.37 115.572 239.488 115.653 239.586 115.755C239.685 115.857 239.761 115.977 239.811 116.11C239.861 116.242 239.884 116.383 239.877 116.524C239.876 116.807 239.763 117.078 239.562 117.279C239.362 117.479 239.091 117.592 238.808 117.594C238.531 117.58 238.269 117.463 238.074 117.265C237.879 117.067 237.767 116.802 237.759 116.524Z" fill="white"/>
<path d="M248.968 129.098C248.604 129.072 248.258 128.932 247.978 128.698C247.738 128.428 247.567 128.104 247.479 127.753C246.64 128.317 245.63 129.065 245 129.065C244.666 129.063 244.336 128.994 244.029 128.864C243.721 128.733 243.442 128.544 243.209 128.305C242.975 128.067 242.79 127.785 242.665 127.475C242.54 127.166 242.478 126.834 242.481 126.501C242.481 125.471 243.026 124.821 244.18 124.421C245.324 124.099 246.425 123.641 247.46 123.057V122.683C247.46 121.168 246.751 120.309 245.695 120.309C245.517 120.303 245.34 120.337 245.178 120.41C245.015 120.483 244.871 120.592 244.757 120.729C244.421 121.127 244.195 121.606 244.101 122.119C244.075 122.259 243.998 122.385 243.886 122.473C243.774 122.561 243.634 122.605 243.491 122.598C243.257 122.577 243.036 122.475 242.868 122.31C242.699 122.145 242.593 121.927 242.567 121.693C242.567 121.385 242.842 121.148 243.222 120.86C244.171 120.176 245.239 119.676 246.371 119.384C246.994 119.373 247.602 119.574 248.096 119.955C248.441 120.279 248.706 120.678 248.87 121.122C249.034 121.566 249.092 122.042 249.04 122.513V126.415C249.04 127.36 249.414 127.675 249.775 127.675C250.041 127.662 250.301 127.583 250.529 127.445L250.739 127.989L248.968 129.098ZM247.433 123.805C246.994 124.034 245.984 124.461 245.544 124.69C244.731 125.064 244.265 125.464 244.265 126.219C244.254 126.423 244.284 126.628 244.353 126.821C244.422 127.015 244.529 127.192 244.668 127.343C244.806 127.494 244.974 127.616 245.161 127.701C245.347 127.786 245.549 127.833 245.754 127.839C246.379 127.765 246.966 127.499 247.433 127.078V123.805Z" fill="white"/>
</svg>
