<svg width="13" height="13" viewBox="0 0 13 13" fill="none" xmlns="http://www.w3.org/2000/svg">
<path d="M6.9574 0.454407C3.644 0.454407 0.957397 3.14101 0.957397 6.45441C0.957397 9.7678 3.644 12.4544 6.9574 12.4544C10.2708 12.4544 12.9574 9.7678 12.9574 6.45441C12.9574 3.14101 10.2708 0.454407 6.9574 0.454407ZM9.32124 8.2986L8.9382 8.82092C8.92987 8.8323 8.91937 8.84191 8.90731 8.84922C8.89526 8.85652 8.88187 8.86137 8.86793 8.86349C8.85399 8.8656 8.83977 8.86494 8.82609 8.86155C8.81241 8.85815 8.79953 8.85208 8.7882 8.84369L6.57302 7.22851C6.55922 7.2186 6.548 7.20552 6.54031 7.19037C6.53262 7.17522 6.52868 7.15845 6.52883 7.14146V3.45441C6.52883 3.39548 6.57704 3.34726 6.63597 3.34726H7.28017C7.33909 3.34726 7.38731 3.39548 7.38731 3.45441V6.76914L9.29713 8.14994C9.34534 8.18342 9.35606 8.25039 9.32124 8.2986Z" fill="#121212"/>
</svg>
