<svg width="13" height="13" viewBox="0 0 13 13" fill="none" xmlns="http://www.w3.org/2000/svg">
<path d="M12.8278 5.15645C12.9142 5.22175 12.9574 5.31971 12.9574 5.45033V12.0789C12.9574 12.1877 12.925 12.2748 12.8602 12.3401C12.7955 12.4054 12.7037 12.4435 12.5849 12.4544H8.84404C8.73607 12.4544 8.64431 12.4163 8.56873 12.3401C8.49316 12.2639 8.45537 12.1769 8.45537 12.0789V7.91563C8.45537 7.80679 8.42298 7.71427 8.35821 7.63808C8.29343 7.56189 8.20166 7.52924 8.0829 7.54012H5.83189C5.72393 7.54012 5.63756 7.57277 5.57278 7.63808C5.508 7.70339 5.47022 7.7959 5.45942 7.91563V12.0789C5.45942 12.1877 5.42703 12.2748 5.36226 12.3401C5.29748 12.4054 5.20571 12.4435 5.08695 12.4544H1.32987C1.2219 12.4544 1.13554 12.4163 1.07076 12.3401C1.00598 12.2639 0.968194 12.1769 0.957397 12.0789V5.45033C0.957397 5.31971 1.00598 5.22175 1.10315 5.15645L6.72258 0.552366C6.88452 0.421754 7.04107 0.421754 7.19222 0.552366L12.8278 5.15645Z" fill="#121212"/>
</svg>
