<svg width="13" height="13" viewBox="0 0 13 13" fill="none" xmlns="http://www.w3.org/2000/svg">
<path d="M10.3121 6.41391C11.7507 6.41391 12.9169 5.7514 12.9169 4.93416C12.9169 4.11691 11.7507 3.45441 10.3121 3.45441C8.87358 3.45441 7.7074 4.11691 7.7074 4.93416C7.7074 5.7514 8.87358 6.41391 10.3121 6.41391Z" fill="#121212"/>
<path fill-rule="evenodd" clip-rule="evenodd" d="M10.3511 7.26517C8.48815 7.26517 7.7464 6.48442 7.7464 6.03217V7.96942C7.7464 8.78692 8.91265 9.44842 10.3511 9.44842C11.7911 9.44842 12.9574 8.78692 12.9574 7.96942V6.07867C12.9574 6.53167 12.2149 7.26517 10.3511 7.26517Z" fill="#121212"/>
<path fill-rule="evenodd" clip-rule="evenodd" d="M10.3511 10.2584C8.68465 10.2584 7.7464 9.50767 7.7464 9.05542V10.9747C7.7464 11.7922 8.91265 12.4544 10.3511 12.4544C11.7911 12.4544 12.9574 11.7922 12.9574 10.9747V9.03217C12.9574 9.48442 12.0184 10.2584 10.3511 10.2584Z" fill="#121212"/>
<path d="M3.91015 3.41391C5.54091 3.41391 6.8629 2.7514 6.8629 1.93416C6.8629 1.11691 5.54091 0.454407 3.91015 0.454407C2.27939 0.454407 0.957397 1.11691 0.957397 1.93416C0.957397 2.7514 2.27939 3.41391 3.91015 3.41391Z" fill="#121212"/>
<path fill-rule="evenodd" clip-rule="evenodd" d="M4.0039 4.26517C1.89265 4.26517 1.05115 3.48442 1.05115 3.03217V4.96942C1.05115 5.78692 2.3734 6.44842 4.0039 6.44842C5.6359 6.44842 6.9574 5.78692 6.9574 4.96942V3.07867C6.9574 3.53167 6.11515 4.26517 4.0039 4.26517Z" fill="#121212"/>
<path fill-rule="evenodd" clip-rule="evenodd" d="M4.0039 7.25842C2.11465 7.25842 1.05115 6.50767 1.05115 6.05542V7.97467C1.05115 8.79217 2.3734 9.45442 4.0039 9.45442C5.6359 9.45442 6.9574 8.79217 6.9574 7.97467V6.03217C6.9574 6.48442 5.8924 7.25842 4.0039 7.25842Z" fill="#121212"/>
<path fill-rule="evenodd" clip-rule="evenodd" d="M4.0039 10.2584C2.11465 10.2584 1.05115 9.50767 1.05115 9.05542V10.9747C1.05115 11.7922 2.3734 12.4544 4.0039 12.4544C5.6359 12.4544 6.9574 11.7922 6.9574 10.9747V9.03217C6.9574 9.48442 5.8924 10.2584 4.0039 10.2584Z" fill="#121212"/>
</svg>
