<svg width="13" height="13" viewBox="0 0 13 13" fill="none" xmlns="http://www.w3.org/2000/svg">
<path d="M6.11521 4.17762C5.01348 4.17762 4.11439 5.07672 4.11439 6.17847C4.11439 7.28021 5.01348 8.17932 6.11521 8.17932C7.21693 8.17932 8.11602 7.28021 8.11602 6.17847C8.11602 5.07672 7.21693 4.17762 6.11521 4.17762ZM12.1162 6.17847C12.1162 5.34991 12.1237 4.52885 12.0771 3.70179C12.0306 2.74114 11.8115 1.88857 11.109 1.18609C10.405 0.482118 9.55397 0.264471 8.59334 0.21794C7.76479 0.171408 6.94375 0.178913 6.11671 0.178913C5.28816 0.178913 4.46713 0.171408 3.64008 0.21794C2.67945 0.264471 1.82689 0.483619 1.12443 1.18609C0.420467 1.89007 0.202824 2.74114 0.156293 3.70179C0.109763 4.53035 0.117268 5.35141 0.117268 6.17847C0.117268 7.00553 0.109763 7.82808 0.156293 8.65514C0.202824 9.61579 0.421968 10.4684 1.12443 11.1708C1.82839 11.8748 2.67945 12.0925 3.64008 12.139C4.46863 12.1855 5.28967 12.178 6.11671 12.178C6.94525 12.178 7.76629 12.1855 8.59334 12.139C9.55397 12.0925 10.4065 11.8733 11.109 11.1708C11.813 10.4669 12.0306 9.61579 12.0771 8.65514C12.1252 7.82808 12.1162 7.00703 12.1162 6.17847ZM6.11521 9.25705C4.41159 9.25705 3.03669 7.88212 3.03669 6.17847C3.03669 4.47482 4.41159 3.09989 6.11521 3.09989C7.81883 3.09989 9.19373 4.47482 9.19373 6.17847C9.19373 7.88212 7.81883 9.25705 6.11521 9.25705ZM9.31981 3.69279C8.92205 3.69279 8.60084 3.37157 8.60084 2.9738C8.60084 2.57603 8.92205 2.25482 9.31981 2.25482C9.71758 2.25482 10.0388 2.57603 10.0388 2.9738C10.0389 3.06825 10.0204 3.1618 9.9843 3.24909C9.94821 3.33637 9.89526 3.41568 9.82847 3.48247C9.76168 3.54925 9.68238 3.60221 9.59509 3.6383C9.50781 3.67439 9.41426 3.69291 9.31981 3.69279Z" fill="white"/>
</svg>
