<svg fill="none" height="13" viewBox="0 0 13 13" width="13" xmlns="http://www.w3.org/2000/svg"><path d="m6.11521 4.17762c-1.10173 0-2.00082.8991-2.00082 2.00085 0 1.10174.89909 2.00085 2.00082 2.00085 1.10172 0 2.00081-.89911 2.00081-2.00085 0-1.10175-.89909-2.00085-2.00081-2.00085zm6.00099 2.00085c0-.82856.0075-1.64962-.0391-2.47668-.0465-.96065-.2656-1.81322-.9681-2.5157-.704-.703972-1.55503-.921619-2.51566-.96815-.82855-.046532-1.64959-.039027-2.47663-.039027-.82855 0-1.64958-.007505-2.47663.039027-.96063.046531-1.81319.265679-2.51565.96815-.703963.70398-.921606 1.55505-.968137 2.5157-.04653.82856-.039025 1.64962-.039025 2.47668s-.007505 1.64961.039025 2.47667c.046531.96065.265675 1.81326.968137 2.51566.70396.704 1.55502.9217 2.51565.9682.82855.0465 1.64959.039 2.47663.039.82854 0 1.64958.0075 2.47663-.039.96063-.0465 1.81316-.2657 2.51566-.9682.704-.7039.9216-1.55501.9681-2.51566.0481-.82706.0391-1.64811.0391-2.47667zm-6.00099 3.07858c-1.70362 0-3.07852-1.37493-3.07852-3.07858s1.3749-3.07858 3.07852-3.07858 3.07852 1.37493 3.07852 3.07858-1.3749 3.07858-3.07852 3.07858zm3.2046-5.56426c-.39776 0-.71897-.32122-.71897-.71899s.32121-.71898.71897-.71898c.39777 0 .71899.32121.71899.71898.0001.09445-.0184.188-.0545.27529-.03609.08728-.08904.16659-.15583.23338-.06679.06678-.14609.11974-.23338.15583-.08728.03609-.18083.05461-.27528.05449z" fill="#fff"/></svg>