<svg fill="none" height="13" viewBox="0 0 13 13" width="13" xmlns="http://www.w3.org/2000/svg"><path d="m11.9873 5.14809c.0863.0653.1295.16326.1295.29387v6.62854c0 .1089-.0324.196-.0971.2613-.0648.0653-.1566.1034-.2753.1142h-3.74094c-.10796 0-.19973-.0381-.2753-.1142-.07558-.0762-.11336-.1633-.11336-.2613v-4.16323c0-.10884-.03239-.20136-.09717-.27755s-.15654-.10885-.2753-.09796h-2.25101c-.10797 0-.19434.03265-.25911.09796-.06478.0653-.10257.15782-.11336.27755v4.16323c0 .1089-.03239.196-.09717.2613s-.15655.1034-.2753.1142h-3.757089c-.107962 0-.194332-.0381-.259109-.1142-.064778-.0762-.102564-.1633-.113361-.2613v-6.62854c0-.13061.048583-.22857.145749-.29387l5.61943-4.604086c.16195-.130612.31849-.130612.46964 0z" fill="#fff"/></svg>