<svg fill="none" height="13" viewBox="0 0 13 13" width="13" xmlns="http://www.w3.org/2000/svg"><path d="m2.53015 5.38328c.96 1.88666 2.50667 3.42666 4.39334 4.39333l1.46666-1.46667c.18001-.18.44667-.24.68001-.16.74666.24667 1.55334.38 2.38004.38.3666 0 .6666.3.6666.66667v2.32669c0 .3666-.3.6666-.6666.6666-6.26005 0-11.333379-5.07329-11.333379-11.333292 0-.366667.3-.666667.666667-.666667h2.333332c.36667 0 .66667.3.66667.666667 0 .833332.13333 1.633332.38 2.380002.07333.23333.02.49333-.16667.68z" fill="#fff"/></svg>