<svg width="13" height="13" viewBox="0 0 13 13" fill="none" xmlns="http://www.w3.org/2000/svg">
<path d="M2.53015 5.38328C3.49015 7.26994 5.03682 8.80994 6.92349 9.77661L8.39015 8.30994C8.57016 8.12994 8.83682 8.06994 9.07016 8.14994C9.81682 8.39661 10.6235 8.52994 11.4502 8.52994C11.8168 8.52994 12.1168 8.82994 12.1168 9.19661V11.5233C12.1168 11.8899 11.8168 12.1899 11.4502 12.1899C5.19015 12.1899 0.116821 7.11661 0.116821 0.856608C0.116821 0.489941 0.416821 0.189941 0.783488 0.189941H3.11682C3.48349 0.189941 3.78349 0.489941 3.78349 0.856608C3.78349 1.68994 3.91682 2.48994 4.16349 3.23661C4.23682 3.46994 4.18349 3.72994 3.99682 3.91661L2.53015 5.38328Z" fill="white"/>
</svg>
