<svg fill="none" height="10" viewBox="0 0 13 10" width="13" xmlns="http://www.w3.org/2000/svg"><g fill="#fff"><path clip-rule="evenodd" d="m8.73633 5.26685c.75858.53104 1.29017 1.25052 1.29017 2.20983v1.71305h1.6611c.3046 0 .5537-.25696.5537-.57102v-1.14203c0-1.24482-1.9767-1.98143-3.50497-2.20983z" fill-rule="evenodd"/><path d="m4.48939 4.6216c1.22323 0 2.21485-1.02261 2.21485-2.28407 0-1.26145-.99162-2.2840632-2.21485-2.2840632s-2.21485 1.0226132-2.21485 2.2840632c0 1.26146.99162 2.28407 2.21485 2.28407z"/><path clip-rule="evenodd" d="m7.81167 4.62172c1.22371 0 2.21483-1.02212 2.21483-2.28407 0-1.26194-.99112-2.2840611-2.21483-2.2840611-.26024 0-.50387.0571011-.73643.1370441.47648.607685.73642 1.365527.73642 2.147017 0 .7815-.25994 1.53934-.73642 2.14703.23256.07994.47619.13704.73643.13704zm-3.32227.57102c-1.47842 0-4.4297076.76516-4.4297076 2.28406v1.14203c0 .31406.2491706.57102.5537126.57102h7.751985c.30454 0 .55371-.25696.55371-.57102v-1.14203c0-1.5189-2.95129-2.28406-4.4297-2.28406z" fill-rule="evenodd"/></g></svg>