<svg width="27" height="29" viewBox="0 0 27 29" fill="none" xmlns="http://www.w3.org/2000/svg">
<path d="M1.19503 9.99886C2.62941 5.68648 5.97106 3.09577 9.54915 1.06256C10.5264 0.505066 12.0869 0.455876 13.1745 0.816607C15.7596 1.68564 18.2185 2.9482 20.7405 4.014C23.2783 5.0798 24.9491 4.14517 24.1768 5.21097C22.0961 8.03123 19.2904 8.90027 16.1852 7.42455C14.7665 6.75228 13.3952 5.91604 11.9608 5.29295C9.59644 4.25995 7.20054 4.39113 5.0726 6.26037C2.70823 8.34277 1.76248 11.0483 2.5506 14.2293C3.51211 18.1153 6.0814 20.5093 9.50187 22.0342C13.5686 23.8542 17.6826 23.4935 21.7336 22.0342C23.7196 21.3127 25.1225 19.7878 25.1225 17.4594C25.1225 16.4264 24.823 14.8851 24.161 14.508C23.3413 14.0489 21.8912 14.2784 20.9454 14.7212C19.4795 15.4098 16.0118 19.0991 12.1027 18.5744C9.67525 18.2465 7.64189 15.4754 7.76799 14.5572C7.86257 13.8357 7.90985 14.5572 11.3934 14.0489C14.0257 13.6554 15.9487 11.6222 17.3831 10.7039C20.0943 8.96586 22.4114 9.04785 24.429 11.5894C28.1647 16.2789 25.7372 23.0672 21.7493 26.0678C14.8926 31.2328 4.36329 28.5765 1.65214 19.5582C1.51027 19.1155 -0.0502125 14.5244 1.19503 9.99886Z" fill="white"/>
</svg>
