<svg width="25" height="26" viewBox="0 0 25 26" fill="none" xmlns="http://www.w3.org/2000/svg">
<path d="M17.8676 16.4044H16.7384L16.3382 16.0184C17.739 14.3889 18.5823 12.2734 18.5823 9.97212C18.5823 4.84061 14.4228 0.681091 9.29127 0.681091C4.15976 0.681091 0.000244141 4.84061 0.000244141 9.97212C0.000244141 15.1036 4.15976 19.2631 9.29127 19.2631C11.5926 19.2631 13.7081 18.4198 15.3376 17.019L15.7235 17.4192V18.5484L22.8705 25.6811L25.0002 23.5513L17.8676 16.4044V16.4044ZM9.29127 16.4044C5.73209 16.4044 2.85902 13.5313 2.85902 9.97212C2.85902 6.41294 5.73209 3.53987 9.29127 3.53987C12.8504 3.53987 15.7235 6.41294 15.7235 9.97212C15.7235 13.5313 12.8504 16.4044 9.29127 16.4044Z" fill="white"/>
</svg>
